<svg xmlns="http://www.w3.org/2000/svg" width="1500" height="520" viewBox="0 0 1500 520">
<style>
text{font-family:-apple-system,BlinkMacSystemFont,'Segoe UI',sans-serif;fill:#17202a}.title{font-size:25px;font-weight:700}.subtitle{font-size:14px;fill:#52606d}.panel-title{font-size:16px;font-weight:700}.axis{stroke:#26323f;stroke-width:1}.grid{stroke:#e3e8ef;stroke-width:1}.tick{font-size:12px;fill:#667080}.legend{font-size:13px;fill:#17202a}
</style>
<text x="82" y="42" class="title">Policy performance as E departure rate increases</text>
<text x="82" y="68" class="subtitle">final perished / (mT), m=10000, T=100, d1=10, d2=1000, 5 runs; H departure rate = 1</text>
<line x1="1012" y1="38" x2="1040" y2="38" stroke="#1f77b4" stroke-width="3"/>
<text x="1048" y="42" class="legend">Greedy</text>
<line x1="1182" y1="38" x2="1210" y2="38" stroke="#d62728" stroke-width="3"/>
<text x="1218" y="42" class="legend">Patient</text>
<line x1="1012" y1="62" x2="1040" y2="62" stroke="#2ca02c" stroke-width="3"/>
<text x="1048" y="66" class="legend">TA-Greedy</text>
<line x1="1182" y1="62" x2="1210" y2="62" stroke="#9467bd" stroke-width="3"/>
<text x="1218" y="66" class="legend">TA-Patient</text>
<text x="82" y="102" class="panel-title">Total perishing</text>
<line x1="82" y1="380" x2="472" y2="380" class="axis"/>
<line x1="82" y1="130" x2="82" y2="380" class="axis"/>
<text x="24" y="255.0" transform="rotate(-90 24 255.0)" text-anchor="middle" class="subtitle">Total perished / (mT)</text>
<line x1="82" y1="317.5" x2="472" y2="317.5" class="grid"/>
<text x="70" y="321.5" text-anchor="end" class="tick">0.12</text>
<line x1="82" y1="255.0" x2="472" y2="255.0" class="grid"/>
<text x="70" y="259.0" text-anchor="end" class="tick">0.25</text>
<line x1="82" y1="192.5" x2="472" y2="192.5" class="grid"/>
<text x="70" y="196.5" text-anchor="end" class="tick">0.38</text>
<line x1="82" y1="130.0" x2="472" y2="130.0" class="grid"/>
<text x="70" y="134.0" text-anchor="end" class="tick">0.50</text>
<line x1="82.0" y1="380" x2="82.0" y2="385" class="axis"/>
<text x="82.0" y="402" text-anchor="middle" class="tick">1</text>
<line x1="92.0" y1="380" x2="92.0" y2="385" class="axis"/>
<text x="92.0" y="402" text-anchor="middle" class="tick">2</text>
<line x1="122.0" y1="380" x2="122.0" y2="385" class="axis"/>
<text x="122.0" y="402" text-anchor="middle" class="tick">5</text>
<line x1="172.0" y1="380" x2="172.0" y2="385" class="axis"/>
<text x="172.0" y="402" text-anchor="middle" class="tick">10</text>
<line x1="272.0" y1="380" x2="272.0" y2="385" class="axis"/>
<text x="272.0" y="402" text-anchor="middle" class="tick">20</text>
<line x1="472.0" y1="380" x2="472.0" y2="385" class="axis"/>
<text x="472.0" y="402" text-anchor="middle" class="tick">40</text>
<text x="277.0" y="428" text-anchor="middle" class="subtitle">E departure rate</text>
<polygon points="82.00,271.42 92.00,271.10 122.00,269.96 172.00,268.37 272.00,265.05 472.00,260.20 472.00,260.49 272.00,265.97 172.00,269.05 122.00,270.51 92.00,271.34 82.00,271.91" fill="#1f77b4" opacity="0.22"/>
<polyline points="82.00,271.66 92.00,271.22 122.00,270.23 172.00,268.71 272.00,265.51 472.00,260.35" fill="none" stroke="#1f77b4" stroke-width="2.4"/>
<circle cx="82.0" cy="271.663" r="3.5" fill="#1f77b4"/>
<circle cx="92.0" cy="271.2217" r="3.5" fill="#1f77b4"/>
<circle cx="122.0" cy="270.2321" r="3.5" fill="#1f77b4"/>
<circle cx="172.0" cy="268.7093" r="3.5" fill="#1f77b4"/>
<circle cx="272.0" cy="265.5124" r="3.5" fill="#1f77b4"/>
<circle cx="472.0" cy="260.3458" r="3.5" fill="#1f77b4"/>
<polygon points="82.00,253.37 92.00,221.02 122.00,188.62 172.00,176.93 272.00,178.51 472.00,189.17 472.00,189.73 272.00,179.25 172.00,178.09 122.00,189.35 92.00,221.72 82.00,254.07" fill="#d62728" opacity="0.22"/>
<polyline points="82.00,253.72 92.00,221.37 122.00,188.98 172.00,177.51 272.00,178.88 472.00,189.45" fill="none" stroke="#d62728" stroke-width="2.4"/>
<circle cx="82.0" cy="253.7235" r="3.5" fill="#d62728"/>
<circle cx="92.0" cy="221.3708" r="3.5" fill="#d62728"/>
<circle cx="122.0" cy="188.9837" r="3.5" fill="#d62728"/>
<circle cx="172.0" cy="177.50789999999998" r="3.5" fill="#d62728"/>
<circle cx="272.0" cy="178.881" r="3.5" fill="#d62728"/>
<circle cx="472.0" cy="189.4498" r="3.5" fill="#d62728"/>
<polygon points="82.00,284.30 92.00,283.92 122.00,281.84 172.00,279.17 272.00,273.72 472.00,265.20 472.00,265.83 272.00,273.99 172.00,279.61 122.00,282.49 92.00,284.36 82.00,284.97" fill="#2ca02c" opacity="0.22"/>
<polyline points="82.00,284.63 92.00,284.14 122.00,282.17 172.00,279.39 272.00,273.86 472.00,265.51" fill="none" stroke="#2ca02c" stroke-width="2.4"/>
<circle cx="82.0" cy="284.6333" r="3.5" fill="#2ca02c"/>
<circle cx="92.0" cy="284.1386" r="3.5" fill="#2ca02c"/>
<circle cx="122.0" cy="282.1655" r="3.5" fill="#2ca02c"/>
<circle cx="172.0" cy="279.3907" r="3.5" fill="#2ca02c"/>
<circle cx="272.0" cy="273.8562" r="3.5" fill="#2ca02c"/>
<circle cx="472.0" cy="265.5147" r="3.5" fill="#2ca02c"/>
<polygon points="82.00,331.37 92.00,310.80 122.00,288.15 172.00,276.58 272.00,270.35 472.00,266.10 472.00,266.38 272.00,270.58 172.00,277.09 122.00,288.45 92.00,311.38 82.00,331.79" fill="#9467bd" opacity="0.22"/>
<polyline points="82.00,331.58 92.00,311.09 122.00,288.30 172.00,276.83 272.00,270.46 472.00,266.24" fill="none" stroke="#9467bd" stroke-width="2.4"/>
<circle cx="82.0" cy="331.579" r="3.5" fill="#9467bd"/>
<circle cx="92.0" cy="311.0865" r="3.5" fill="#9467bd"/>
<circle cx="122.0" cy="288.3014" r="3.5" fill="#9467bd"/>
<circle cx="172.0" cy="276.8349" r="3.5" fill="#9467bd"/>
<circle cx="272.0" cy="270.4634" r="3.5" fill="#9467bd"/>
<circle cx="472.0" cy="266.2386" r="3.5" fill="#9467bd"/>
<text x="544" y="102" class="panel-title">Hard-to-match H perishing</text>
<line x1="544" y1="380" x2="934" y2="380" class="axis"/>
<line x1="544" y1="130" x2="544" y2="380" class="axis"/>
<text x="486" y="255.0" transform="rotate(-90 486 255.0)" text-anchor="middle" class="subtitle">H perished / (mT)</text>
<line x1="544" y1="317.5" x2="934" y2="317.5" class="grid"/>
<text x="532" y="321.5" text-anchor="end" class="tick">0.12</text>
<line x1="544" y1="255.0" x2="934" y2="255.0" class="grid"/>
<text x="532" y="259.0" text-anchor="end" class="tick">0.25</text>
<line x1="544" y1="192.5" x2="934" y2="192.5" class="grid"/>
<text x="532" y="196.5" text-anchor="end" class="tick">0.38</text>
<line x1="544" y1="130.0" x2="934" y2="130.0" class="grid"/>
<text x="532" y="134.0" text-anchor="end" class="tick">0.50</text>
<line x1="544.0" y1="380" x2="544.0" y2="385" class="axis"/>
<text x="544.0" y="402" text-anchor="middle" class="tick">1</text>
<line x1="554.0" y1="380" x2="554.0" y2="385" class="axis"/>
<text x="554.0" y="402" text-anchor="middle" class="tick">2</text>
<line x1="584.0" y1="380" x2="584.0" y2="385" class="axis"/>
<text x="584.0" y="402" text-anchor="middle" class="tick">5</text>
<line x1="634.0" y1="380" x2="634.0" y2="385" class="axis"/>
<text x="634.0" y="402" text-anchor="middle" class="tick">10</text>
<line x1="734.0" y1="380" x2="734.0" y2="385" class="axis"/>
<text x="734.0" y="402" text-anchor="middle" class="tick">20</text>
<line x1="934.0" y1="380" x2="934.0" y2="385" class="axis"/>
<text x="934.0" y="402" text-anchor="middle" class="tick">40</text>
<text x="739.0" y="428" text-anchor="middle" class="subtitle">E departure rate</text>
<polygon points="544.00,271.84 554.00,271.90 584.00,272.00 634.00,272.38 734.00,272.63 934.00,274.05 934.00,274.35 734.00,273.60 634.00,273.03 584.00,272.56 554.00,272.18 544.00,272.33" fill="#1f77b4" opacity="0.22"/>
<polyline points="544.00,272.09 554.00,272.04 584.00,272.28 634.00,272.70 734.00,273.11 934.00,274.20" fill="none" stroke="#1f77b4" stroke-width="2.4"/>
<circle cx="544.0" cy="272.0869" r="3.5" fill="#1f77b4"/>
<circle cx="554.0" cy="272.043" r="3.5" fill="#1f77b4"/>
<circle cx="584.0" cy="272.2783" r="3.5" fill="#1f77b4"/>
<circle cx="634.0" cy="272.7045" r="3.5" fill="#1f77b4"/>
<circle cx="734.0" cy="273.1128" r="3.5" fill="#1f77b4"/>
<circle cx="934.0" cy="274.2015" r="3.5" fill="#1f77b4"/>
<polygon points="544.00,253.37 554.00,221.02 584.00,188.62 634.00,176.93 734.00,178.53 934.00,189.70 934.00,190.26 734.00,179.27 634.00,178.09 584.00,189.35 554.00,221.72 544.00,254.07" fill="#d62728" opacity="0.22"/>
<polyline points="544.00,253.72 554.00,221.37 584.00,188.98 634.00,177.51 734.00,178.90 934.00,189.98" fill="none" stroke="#d62728" stroke-width="2.4"/>
<circle cx="544.0" cy="253.7235" r="3.5" fill="#d62728"/>
<circle cx="554.0" cy="221.3708" r="3.5" fill="#d62728"/>
<circle cx="584.0" cy="188.984" r="3.5" fill="#d62728"/>
<circle cx="634.0" cy="177.50799999999998" r="3.5" fill="#d62728"/>
<circle cx="734.0" cy="178.9015" r="3.5" fill="#d62728"/>
<circle cx="934.0" cy="189.97690000000003" r="3.5" fill="#d62728"/>
<polygon points="544.00,284.96 554.00,285.24 584.00,285.06 634.00,285.33 734.00,285.04 934.00,284.98 934.00,285.53 734.00,285.28 634.00,285.75 584.00,285.68 554.00,285.68 544.00,285.64" fill="#2ca02c" opacity="0.22"/>
<polyline points="544.00,285.30 554.00,285.46 584.00,285.37 634.00,285.54 734.00,285.16 934.00,285.26" fill="none" stroke="#2ca02c" stroke-width="2.4"/>
<circle cx="544.0" cy="285.2991" r="3.5" fill="#2ca02c"/>
<circle cx="554.0" cy="285.4563" r="3.5" fill="#2ca02c"/>
<circle cx="584.0" cy="285.369" r="3.5" fill="#2ca02c"/>
<circle cx="634.0" cy="285.5391" r="3.5" fill="#2ca02c"/>
<circle cx="734.0" cy="285.1597" r="3.5" fill="#2ca02c"/>
<circle cx="934.0" cy="285.2591" r="3.5" fill="#2ca02c"/>
<polygon points="544.00,331.37 554.00,310.80 584.00,288.15 634.00,276.58 734.00,270.36 934.00,266.65 934.00,266.93 734.00,270.59 634.00,277.09 584.00,288.45 554.00,311.38 544.00,331.79" fill="#9467bd" opacity="0.22"/>
<polyline points="544.00,331.58 554.00,311.09 584.00,288.30 634.00,276.84 734.00,270.47 934.00,266.79" fill="none" stroke="#9467bd" stroke-width="2.4"/>
<circle cx="544.0" cy="331.5791" r="3.5" fill="#9467bd"/>
<circle cx="554.0" cy="311.0865" r="3.5" fill="#9467bd"/>
<circle cx="584.0" cy="288.30150000000003" r="3.5" fill="#9467bd"/>
<circle cx="634.0" cy="276.8353" r="3.5" fill="#9467bd"/>
<circle cx="734.0" cy="270.4724" r="3.5" fill="#9467bd"/>
<circle cx="934.0" cy="266.789" r="3.5" fill="#9467bd"/>
<text x="1006" y="102" class="panel-title">Easy-to-match E perishing</text>
<line x1="1006" y1="380" x2="1396" y2="380" class="axis"/>
<line x1="1006" y1="130" x2="1006" y2="380" class="axis"/>
<text x="948" y="255.0" transform="rotate(-90 948 255.0)" text-anchor="middle" class="subtitle">E perished / (mT)</text>
<line x1="1006" y1="317.5" x2="1396" y2="317.5" class="grid"/>
<text x="994" y="321.5" text-anchor="end" class="tick">0.01</text>
<line x1="1006" y1="255.0" x2="1396" y2="255.0" class="grid"/>
<text x="994" y="259.0" text-anchor="end" class="tick">0.03</text>
<line x1="1006" y1="192.5" x2="1396" y2="192.5" class="grid"/>
<text x="994" y="196.5" text-anchor="end" class="tick">0.04</text>
<line x1="1006" y1="130.0" x2="1396" y2="130.0" class="grid"/>
<text x="994" y="134.0" text-anchor="end" class="tick">0.05</text>
<line x1="1006.0" y1="380" x2="1006.0" y2="385" class="axis"/>
<text x="1006.0" y="402" text-anchor="middle" class="tick">1</text>
<line x1="1016.0" y1="380" x2="1016.0" y2="385" class="axis"/>
<text x="1016.0" y="402" text-anchor="middle" class="tick">2</text>
<line x1="1046.0" y1="380" x2="1046.0" y2="385" class="axis"/>
<text x="1046.0" y="402" text-anchor="middle" class="tick">5</text>
<line x1="1096.0" y1="380" x2="1096.0" y2="385" class="axis"/>
<text x="1096.0" y="402" text-anchor="middle" class="tick">10</text>
<line x1="1196.0" y1="380" x2="1196.0" y2="385" class="axis"/>
<text x="1196.0" y="402" text-anchor="middle" class="tick">20</text>
<line x1="1396.0" y1="380" x2="1396.0" y2="385" class="axis"/>
<text x="1396.0" y="402" text-anchor="middle" class="tick">40</text>
<text x="1201.0" y="428" text-anchor="middle" class="subtitle">E departure rate</text>
<polygon points="1006.00,375.61 1016.00,371.51 1046.00,359.39 1096.00,339.62 1196.00,303.35 1396.00,240.73 1396.00,242.16 1196.00,304.64 1096.00,340.47 1046.00,359.68 1016.00,372.06 1006.00,375.91" fill="#1f77b4" opacity="0.22"/>
<polyline points="1006.00,375.76 1016.00,371.79 1046.00,359.54 1096.00,340.05 1196.00,304.00 1396.00,241.44" fill="none" stroke="#1f77b4" stroke-width="2.4"/>
<circle cx="1006.0" cy="375.761" r="3.5" fill="#1f77b4"/>
<circle cx="1016.0" cy="371.787" r="3.5" fill="#1f77b4"/>
<circle cx="1046.0" cy="359.538" r="3.5" fill="#1f77b4"/>
<circle cx="1096.0" cy="340.048" r="3.5" fill="#1f77b4"/>
<circle cx="1196.0" cy="303.996" r="3.5" fill="#1f77b4"/>
<circle cx="1396.0" cy="241.44299999999998" r="3.5" fill="#1f77b4"/>
<polygon points="1006.00,380.00 1016.00,380.00 1046.00,379.99 1096.00,380.00 1196.00,379.78 1396.00,374.50 1396.00,374.96 1196.00,379.81 1096.00,380.00 1046.00,380.00 1016.00,380.00 1006.00,380.00" fill="#d62728" opacity="0.22"/>
<polyline points="1006.00,380.00 1016.00,380.00 1046.00,380.00 1096.00,380.00 1196.00,379.80 1396.00,374.73" fill="none" stroke="#d62728" stroke-width="2.4"/>
<circle cx="1006.0" cy="380.0" r="3.5" fill="#d62728"/>
<circle cx="1016.0" cy="380.0" r="3.5" fill="#d62728"/>
<circle cx="1046.0" cy="379.997" r="3.5" fill="#d62728"/>
<circle cx="1096.0" cy="379.999" r="3.5" fill="#d62728"/>
<circle cx="1196.0" cy="379.795" r="3.5" fill="#d62728"/>
<circle cx="1396.0" cy="374.729" r="3.5" fill="#d62728"/>
<polygon points="1006.00,373.29 1016.00,366.60 1046.00,347.60 1096.00,318.02 1196.00,266.11 1396.00,181.76 1396.00,183.35 1196.00,267.82 1096.00,319.01 1046.00,348.33 1016.00,367.04 1006.00,373.39" fill="#2ca02c" opacity="0.22"/>
<polyline points="1006.00,373.34 1016.00,366.82 1046.00,347.97 1096.00,318.52 1196.00,266.97 1396.00,182.56" fill="none" stroke="#2ca02c" stroke-width="2.4"/>
<circle cx="1006.0" cy="373.342" r="3.5" fill="#2ca02c"/>
<circle cx="1016.0" cy="366.823" r="3.5" fill="#2ca02c"/>
<circle cx="1046.0" cy="347.96500000000003" r="3.5" fill="#2ca02c"/>
<circle cx="1096.0" cy="318.516" r="3.5" fill="#2ca02c"/>
<circle cx="1196.0" cy="266.96500000000003" r="3.5" fill="#2ca02c"/>
<circle cx="1396.0" cy="182.556" r="3.5" fill="#2ca02c"/>
<polygon points="1006.00,380.00 1016.00,380.00 1046.00,380.00 1096.00,379.99 1196.00,379.89 1396.00,374.37 1396.00,374.63 1196.00,379.93 1096.00,380.00 1046.00,380.00 1016.00,380.00 1006.00,380.00" fill="#9467bd" opacity="0.22"/>
<polyline points="1006.00,380.00 1016.00,380.00 1046.00,380.00 1096.00,380.00 1196.00,379.91 1396.00,374.50" fill="none" stroke="#9467bd" stroke-width="2.4"/>
<circle cx="1006.0" cy="379.999" r="3.5" fill="#9467bd"/>
<circle cx="1016.0" cy="380.0" r="3.5" fill="#9467bd"/>
<circle cx="1046.0" cy="379.999" r="3.5" fill="#9467bd"/>
<circle cx="1096.0" cy="379.996" r="3.5" fill="#9467bd"/>
<circle cx="1196.0" cy="379.91" r="3.5" fill="#9467bd"/>
<circle cx="1396.0" cy="374.496" r="3.5" fill="#9467bd"/>
</svg>