<svg xmlns="http://www.w3.org/2000/svg" width="1500" height="520" viewBox="0 0 1500 520">
<style>
text{font-family:-apple-system,BlinkMacSystemFont,'Segoe UI',sans-serif;fill:#17202a}.title{font-size:25px;font-weight:700}.subtitle{font-size:14px;fill:#52606d}.panel-title{font-size:16px;font-weight:700}.axis{stroke:#26323f;stroke-width:1}.grid{stroke:#e3e8ef;stroke-width:1}.tick{font-size:12px;fill:#667080}.legend{font-size:13px;fill:#17202a}
</style>
<text x="82" y="42" class="title">Policy performance as E departure rate increases</text>
<text x="82" y="68" class="subtitle">final perished / (mT), m=10000, T=100, d1=10, d2=1000, 5 runs; H departure rate = 1</text>
<line x1="1012" y1="38" x2="1040" y2="38" stroke="#1f77b4" stroke-width="3"/>
<text x="1048" y="42" class="legend">Greedy</text>
<line x1="1182" y1="38" x2="1210" y2="38" stroke="#d62728" stroke-width="3"/>
<text x="1218" y="42" class="legend">Patient</text>
<line x1="1012" y1="62" x2="1040" y2="62" stroke="#2ca02c" stroke-width="3"/>
<text x="1048" y="66" class="legend">TA-Greedy</text>
<line x1="1182" y1="62" x2="1210" y2="62" stroke="#9467bd" stroke-width="3"/>
<text x="1218" y="66" class="legend">TA-Patient</text>
<text x="82" y="102" class="panel-title">Total perishing</text>
<line x1="82" y1="380" x2="472" y2="380" class="axis"/>
<line x1="82" y1="130" x2="82" y2="380" class="axis"/>
<text x="24" y="255.0" transform="rotate(-90 24 255.0)" text-anchor="middle" class="subtitle">Total perished / (mT)</text>
<line x1="82" y1="317.5" x2="472" y2="317.5" class="grid"/>
<text x="70" y="321.5" text-anchor="end" class="tick">0.12</text>
<line x1="82" y1="255.0" x2="472" y2="255.0" class="grid"/>
<text x="70" y="259.0" text-anchor="end" class="tick">0.25</text>
<line x1="82" y1="192.5" x2="472" y2="192.5" class="grid"/>
<text x="70" y="196.5" text-anchor="end" class="tick">0.38</text>
<line x1="82" y1="130.0" x2="472" y2="130.0" class="grid"/>
<text x="70" y="134.0" text-anchor="end" class="tick">0.50</text>
<line x1="82.0" y1="380" x2="82.0" y2="385" class="axis"/>
<text x="82.0" y="402" text-anchor="middle" class="tick">1</text>
<line x1="155.28171163655196" y1="380" x2="155.28171163655196" y2="385" class="axis"/>
<text x="155.28171163655196" y="402" text-anchor="middle" class="tick">2</text>
<line x1="252.15486509034412" y1="380" x2="252.15486509034412" y2="385" class="axis"/>
<text x="252.15486509034412" y="402" text-anchor="middle" class="tick">5</text>
<line x1="325.43657672689613" y1="380" x2="325.43657672689613" y2="385" class="axis"/>
<text x="325.43657672689613" y="402" text-anchor="middle" class="tick">10</text>
<line x1="398.718288363448" y1="380" x2="398.718288363448" y2="385" class="axis"/>
<text x="398.718288363448" y="402" text-anchor="middle" class="tick">20</text>
<line x1="472.0" y1="380" x2="472.0" y2="385" class="axis"/>
<text x="472.0" y="402" text-anchor="middle" class="tick">40</text>
<text x="277.0" y="428" text-anchor="middle" class="subtitle">E departure rate (log scale)</text>
<polygon points="82.00,271.42 155.28,271.10 252.15,269.96 325.44,268.37 398.72,265.05 472.00,260.20 472.00,260.49 398.72,265.97 325.44,269.05 252.15,270.51 155.28,271.34 82.00,271.91" fill="#1f77b4" opacity="0.22"/>
<polyline points="82.00,271.66 155.28,271.22 252.15,270.23 325.44,268.71 398.72,265.51 472.00,260.35" fill="none" stroke="#1f77b4" stroke-width="2.4"/>
<circle cx="82.0" cy="271.663" r="3.5" fill="#1f77b4"/>
<circle cx="155.28171163655196" cy="271.2217" r="3.5" fill="#1f77b4"/>
<circle cx="252.15486509034412" cy="270.2321" r="3.5" fill="#1f77b4"/>
<circle cx="325.43657672689613" cy="268.7093" r="3.5" fill="#1f77b4"/>
<circle cx="398.718288363448" cy="265.5124" r="3.5" fill="#1f77b4"/>
<circle cx="472.0" cy="260.3458" r="3.5" fill="#1f77b4"/>
<polygon points="82.00,253.37 155.28,221.02 252.15,188.62 325.44,176.93 398.72,178.51 472.00,189.17 472.00,189.73 398.72,179.25 325.44,178.09 252.15,189.35 155.28,221.72 82.00,254.07" fill="#d62728" opacity="0.22"/>
<polyline points="82.00,253.72 155.28,221.37 252.15,188.98 325.44,177.51 398.72,178.88 472.00,189.45" fill="none" stroke="#d62728" stroke-width="2.4"/>
<circle cx="82.0" cy="253.7235" r="3.5" fill="#d62728"/>
<circle cx="155.28171163655196" cy="221.3708" r="3.5" fill="#d62728"/>
<circle cx="252.15486509034412" cy="188.9837" r="3.5" fill="#d62728"/>
<circle cx="325.43657672689613" cy="177.50789999999998" r="3.5" fill="#d62728"/>
<circle cx="398.718288363448" cy="178.881" r="3.5" fill="#d62728"/>
<circle cx="472.0" cy="189.4498" r="3.5" fill="#d62728"/>
<polygon points="82.00,284.30 155.28,283.92 252.15,281.84 325.44,279.17 398.72,273.72 472.00,265.20 472.00,265.83 398.72,273.99 325.44,279.61 252.15,282.49 155.28,284.36 82.00,284.97" fill="#2ca02c" opacity="0.22"/>
<polyline points="82.00,284.63 155.28,284.14 252.15,282.17 325.44,279.39 398.72,273.86 472.00,265.51" fill="none" stroke="#2ca02c" stroke-width="2.4"/>
<circle cx="82.0" cy="284.6333" r="3.5" fill="#2ca02c"/>
<circle cx="155.28171163655196" cy="284.1386" r="3.5" fill="#2ca02c"/>
<circle cx="252.15486509034412" cy="282.1655" r="3.5" fill="#2ca02c"/>
<circle cx="325.43657672689613" cy="279.3907" r="3.5" fill="#2ca02c"/>
<circle cx="398.718288363448" cy="273.8562" r="3.5" fill="#2ca02c"/>
<circle cx="472.0" cy="265.5147" r="3.5" fill="#2ca02c"/>
<polygon points="82.00,331.37 155.28,310.80 252.15,288.15 325.44,276.58 398.72,270.35 472.00,266.10 472.00,266.38 398.72,270.58 325.44,277.09 252.15,288.45 155.28,311.38 82.00,331.79" fill="#9467bd" opacity="0.22"/>
<polyline points="82.00,331.58 155.28,311.09 252.15,288.30 325.44,276.83 398.72,270.46 472.00,266.24" fill="none" stroke="#9467bd" stroke-width="2.4"/>
<circle cx="82.0" cy="331.579" r="3.5" fill="#9467bd"/>
<circle cx="155.28171163655196" cy="311.0865" r="3.5" fill="#9467bd"/>
<circle cx="252.15486509034412" cy="288.3014" r="3.5" fill="#9467bd"/>
<circle cx="325.43657672689613" cy="276.8349" r="3.5" fill="#9467bd"/>
<circle cx="398.718288363448" cy="270.4634" r="3.5" fill="#9467bd"/>
<circle cx="472.0" cy="266.2386" r="3.5" fill="#9467bd"/>
<text x="544" y="102" class="panel-title">Hard-to-match H perishing</text>
<line x1="544" y1="380" x2="934" y2="380" class="axis"/>
<line x1="544" y1="130" x2="544" y2="380" class="axis"/>
<text x="486" y="255.0" transform="rotate(-90 486 255.0)" text-anchor="middle" class="subtitle">H perished / (mT)</text>
<line x1="544" y1="317.5" x2="934" y2="317.5" class="grid"/>
<text x="532" y="321.5" text-anchor="end" class="tick">0.12</text>
<line x1="544" y1="255.0" x2="934" y2="255.0" class="grid"/>
<text x="532" y="259.0" text-anchor="end" class="tick">0.25</text>
<line x1="544" y1="192.5" x2="934" y2="192.5" class="grid"/>
<text x="532" y="196.5" text-anchor="end" class="tick">0.38</text>
<line x1="544" y1="130.0" x2="934" y2="130.0" class="grid"/>
<text x="532" y="134.0" text-anchor="end" class="tick">0.50</text>
<line x1="544.0" y1="380" x2="544.0" y2="385" class="axis"/>
<text x="544.0" y="402" text-anchor="middle" class="tick">1</text>
<line x1="617.2817116365519" y1="380" x2="617.2817116365519" y2="385" class="axis"/>
<text x="617.2817116365519" y="402" text-anchor="middle" class="tick">2</text>
<line x1="714.1548650903442" y1="380" x2="714.1548650903442" y2="385" class="axis"/>
<text x="714.1548650903442" y="402" text-anchor="middle" class="tick">5</text>
<line x1="787.4365767268962" y1="380" x2="787.4365767268962" y2="385" class="axis"/>
<text x="787.4365767268962" y="402" text-anchor="middle" class="tick">10</text>
<line x1="860.718288363448" y1="380" x2="860.718288363448" y2="385" class="axis"/>
<text x="860.718288363448" y="402" text-anchor="middle" class="tick">20</text>
<line x1="934.0" y1="380" x2="934.0" y2="385" class="axis"/>
<text x="934.0" y="402" text-anchor="middle" class="tick">40</text>
<text x="739.0" y="428" text-anchor="middle" class="subtitle">E departure rate (log scale)</text>
<polygon points="544.00,271.84 617.28,271.90 714.15,272.00 787.44,272.38 860.72,272.63 934.00,274.05 934.00,274.35 860.72,273.60 787.44,273.03 714.15,272.56 617.28,272.18 544.00,272.33" fill="#1f77b4" opacity="0.22"/>
<polyline points="544.00,272.09 617.28,272.04 714.15,272.28 787.44,272.70 860.72,273.11 934.00,274.20" fill="none" stroke="#1f77b4" stroke-width="2.4"/>
<circle cx="544.0" cy="272.0869" r="3.5" fill="#1f77b4"/>
<circle cx="617.2817116365519" cy="272.043" r="3.5" fill="#1f77b4"/>
<circle cx="714.1548650903442" cy="272.2783" r="3.5" fill="#1f77b4"/>
<circle cx="787.4365767268962" cy="272.7045" r="3.5" fill="#1f77b4"/>
<circle cx="860.718288363448" cy="273.1128" r="3.5" fill="#1f77b4"/>
<circle cx="934.0" cy="274.2015" r="3.5" fill="#1f77b4"/>
<polygon points="544.00,253.37 617.28,221.02 714.15,188.62 787.44,176.93 860.72,178.53 934.00,189.70 934.00,190.26 860.72,179.27 787.44,178.09 714.15,189.35 617.28,221.72 544.00,254.07" fill="#d62728" opacity="0.22"/>
<polyline points="544.00,253.72 617.28,221.37 714.15,188.98 787.44,177.51 860.72,178.90 934.00,189.98" fill="none" stroke="#d62728" stroke-width="2.4"/>
<circle cx="544.0" cy="253.7235" r="3.5" fill="#d62728"/>
<circle cx="617.2817116365519" cy="221.3708" r="3.5" fill="#d62728"/>
<circle cx="714.1548650903442" cy="188.984" r="3.5" fill="#d62728"/>
<circle cx="787.4365767268962" cy="177.50799999999998" r="3.5" fill="#d62728"/>
<circle cx="860.718288363448" cy="178.9015" r="3.5" fill="#d62728"/>
<circle cx="934.0" cy="189.97690000000003" r="3.5" fill="#d62728"/>
<polygon points="544.00,284.96 617.28,285.24 714.15,285.06 787.44,285.33 860.72,285.04 934.00,284.98 934.00,285.53 860.72,285.28 787.44,285.75 714.15,285.68 617.28,285.68 544.00,285.64" fill="#2ca02c" opacity="0.22"/>
<polyline points="544.00,285.30 617.28,285.46 714.15,285.37 787.44,285.54 860.72,285.16 934.00,285.26" fill="none" stroke="#2ca02c" stroke-width="2.4"/>
<circle cx="544.0" cy="285.2991" r="3.5" fill="#2ca02c"/>
<circle cx="617.2817116365519" cy="285.4563" r="3.5" fill="#2ca02c"/>
<circle cx="714.1548650903442" cy="285.369" r="3.5" fill="#2ca02c"/>
<circle cx="787.4365767268962" cy="285.5391" r="3.5" fill="#2ca02c"/>
<circle cx="860.718288363448" cy="285.1597" r="3.5" fill="#2ca02c"/>
<circle cx="934.0" cy="285.2591" r="3.5" fill="#2ca02c"/>
<polygon points="544.00,331.37 617.28,310.80 714.15,288.15 787.44,276.58 860.72,270.36 934.00,266.65 934.00,266.93 860.72,270.59 787.44,277.09 714.15,288.45 617.28,311.38 544.00,331.79" fill="#9467bd" opacity="0.22"/>
<polyline points="544.00,331.58 617.28,311.09 714.15,288.30 787.44,276.84 860.72,270.47 934.00,266.79" fill="none" stroke="#9467bd" stroke-width="2.4"/>
<circle cx="544.0" cy="331.5791" r="3.5" fill="#9467bd"/>
<circle cx="617.2817116365519" cy="311.0865" r="3.5" fill="#9467bd"/>
<circle cx="714.1548650903442" cy="288.30150000000003" r="3.5" fill="#9467bd"/>
<circle cx="787.4365767268962" cy="276.8353" r="3.5" fill="#9467bd"/>
<circle cx="860.718288363448" cy="270.4724" r="3.5" fill="#9467bd"/>
<circle cx="934.0" cy="266.789" r="3.5" fill="#9467bd"/>
<text x="1006" y="102" class="panel-title">Easy-to-match E perishing</text>
<line x1="1006" y1="380" x2="1396" y2="380" class="axis"/>
<line x1="1006" y1="130" x2="1006" y2="380" class="axis"/>
<text x="948" y="255.0" transform="rotate(-90 948 255.0)" text-anchor="middle" class="subtitle">E perished / (mT)</text>
<line x1="1006" y1="317.5" x2="1396" y2="317.5" class="grid"/>
<text x="994" y="321.5" text-anchor="end" class="tick">0.01</text>
<line x1="1006" y1="255.0" x2="1396" y2="255.0" class="grid"/>
<text x="994" y="259.0" text-anchor="end" class="tick">0.03</text>
<line x1="1006" y1="192.5" x2="1396" y2="192.5" class="grid"/>
<text x="994" y="196.5" text-anchor="end" class="tick">0.04</text>
<line x1="1006" y1="130.0" x2="1396" y2="130.0" class="grid"/>
<text x="994" y="134.0" text-anchor="end" class="tick">0.05</text>
<line x1="1006.0" y1="380" x2="1006.0" y2="385" class="axis"/>
<text x="1006.0" y="402" text-anchor="middle" class="tick">1</text>
<line x1="1079.281711636552" y1="380" x2="1079.281711636552" y2="385" class="axis"/>
<text x="1079.281711636552" y="402" text-anchor="middle" class="tick">2</text>
<line x1="1176.1548650903442" y1="380" x2="1176.1548650903442" y2="385" class="axis"/>
<text x="1176.1548650903442" y="402" text-anchor="middle" class="tick">5</text>
<line x1="1249.4365767268962" y1="380" x2="1249.4365767268962" y2="385" class="axis"/>
<text x="1249.4365767268962" y="402" text-anchor="middle" class="tick">10</text>
<line x1="1322.718288363448" y1="380" x2="1322.718288363448" y2="385" class="axis"/>
<text x="1322.718288363448" y="402" text-anchor="middle" class="tick">20</text>
<line x1="1396.0" y1="380" x2="1396.0" y2="385" class="axis"/>
<text x="1396.0" y="402" text-anchor="middle" class="tick">40</text>
<text x="1201.0" y="428" text-anchor="middle" class="subtitle">E departure rate (log scale)</text>
<polygon points="1006.00,375.61 1079.28,371.51 1176.15,359.39 1249.44,339.62 1322.72,303.35 1396.00,240.73 1396.00,242.16 1322.72,304.64 1249.44,340.47 1176.15,359.68 1079.28,372.06 1006.00,375.91" fill="#1f77b4" opacity="0.22"/>
<polyline points="1006.00,375.76 1079.28,371.79 1176.15,359.54 1249.44,340.05 1322.72,304.00 1396.00,241.44" fill="none" stroke="#1f77b4" stroke-width="2.4"/>
<circle cx="1006.0" cy="375.761" r="3.5" fill="#1f77b4"/>
<circle cx="1079.281711636552" cy="371.787" r="3.5" fill="#1f77b4"/>
<circle cx="1176.1548650903442" cy="359.538" r="3.5" fill="#1f77b4"/>
<circle cx="1249.4365767268962" cy="340.048" r="3.5" fill="#1f77b4"/>
<circle cx="1322.718288363448" cy="303.996" r="3.5" fill="#1f77b4"/>
<circle cx="1396.0" cy="241.44299999999998" r="3.5" fill="#1f77b4"/>
<polygon points="1006.00,380.00 1079.28,380.00 1176.15,379.99 1249.44,380.00 1322.72,379.78 1396.00,374.50 1396.00,374.96 1322.72,379.81 1249.44,380.00 1176.15,380.00 1079.28,380.00 1006.00,380.00" fill="#d62728" opacity="0.22"/>
<polyline points="1006.00,380.00 1079.28,380.00 1176.15,380.00 1249.44,380.00 1322.72,379.80 1396.00,374.73" fill="none" stroke="#d62728" stroke-width="2.4"/>
<circle cx="1006.0" cy="380.0" r="3.5" fill="#d62728"/>
<circle cx="1079.281711636552" cy="380.0" r="3.5" fill="#d62728"/>
<circle cx="1176.1548650903442" cy="379.997" r="3.5" fill="#d62728"/>
<circle cx="1249.4365767268962" cy="379.999" r="3.5" fill="#d62728"/>
<circle cx="1322.718288363448" cy="379.795" r="3.5" fill="#d62728"/>
<circle cx="1396.0" cy="374.729" r="3.5" fill="#d62728"/>
<polygon points="1006.00,373.29 1079.28,366.60 1176.15,347.60 1249.44,318.02 1322.72,266.11 1396.00,181.76 1396.00,183.35 1322.72,267.82 1249.44,319.01 1176.15,348.33 1079.28,367.04 1006.00,373.39" fill="#2ca02c" opacity="0.22"/>
<polyline points="1006.00,373.34 1079.28,366.82 1176.15,347.97 1249.44,318.52 1322.72,266.97 1396.00,182.56" fill="none" stroke="#2ca02c" stroke-width="2.4"/>
<circle cx="1006.0" cy="373.342" r="3.5" fill="#2ca02c"/>
<circle cx="1079.281711636552" cy="366.823" r="3.5" fill="#2ca02c"/>
<circle cx="1176.1548650903442" cy="347.96500000000003" r="3.5" fill="#2ca02c"/>
<circle cx="1249.4365767268962" cy="318.516" r="3.5" fill="#2ca02c"/>
<circle cx="1322.718288363448" cy="266.96500000000003" r="3.5" fill="#2ca02c"/>
<circle cx="1396.0" cy="182.556" r="3.5" fill="#2ca02c"/>
<polygon points="1006.00,380.00 1079.28,380.00 1176.15,380.00 1249.44,379.99 1322.72,379.89 1396.00,374.37 1396.00,374.63 1322.72,379.93 1249.44,380.00 1176.15,380.00 1079.28,380.00 1006.00,380.00" fill="#9467bd" opacity="0.22"/>
<polyline points="1006.00,380.00 1079.28,380.00 1176.15,380.00 1249.44,380.00 1322.72,379.91 1396.00,374.50" fill="none" stroke="#9467bd" stroke-width="2.4"/>
<circle cx="1006.0" cy="379.999" r="3.5" fill="#9467bd"/>
<circle cx="1079.281711636552" cy="380.0" r="3.5" fill="#9467bd"/>
<circle cx="1176.1548650903442" cy="379.999" r="3.5" fill="#9467bd"/>
<circle cx="1249.4365767268962" cy="379.996" r="3.5" fill="#9467bd"/>
<circle cx="1322.718288363448" cy="379.91" r="3.5" fill="#9467bd"/>
<circle cx="1396.0" cy="374.496" r="3.5" fill="#9467bd"/>
</svg>