<svg xmlns="http://www.w3.org/2000/svg" width="1420" height="520" viewBox="0 0 1420 520">
<style>
text{font-family:-apple-system,BlinkMacSystemFont,'Segoe UI',sans-serif;fill:#17202a}.title{font-size:25px;font-weight:700}.subtitle{font-size:14px;fill:#52606d}.panel-title{font-size:16px;font-weight:700}.axis{stroke:#26323f;stroke-width:1}.grid{stroke:#e3e8ef;stroke-width:1}.tick{font-size:12px;fill:#667080}.legend{font-size:13px;fill:#17202a}
</style>
<text x="82" y="42" class="title">Cumulative perishing loss by policy</text>
<text x="82" y="68" class="subtitle">loss(t) = perished by time t / (m t), m=10000, d1=10, 10 runs, t=0..50</text>
<line x1="792" y1="38" x2="820" y2="38" stroke="#1f77b4" stroke-width="3"/>
<text x="828" y="42" class="legend">Greedy</text>
<line x1="957" y1="38" x2="985" y2="38" stroke="#d62728" stroke-width="3"/>
<text x="993" y="42" class="legend">Patient</text>
<line x1="792" y1="62" x2="820" y2="62" stroke="#2ca02c" stroke-width="3"/>
<text x="828" y="66" class="legend">TA-Greedy</text>
<line x1="957" y1="62" x2="985" y2="62" stroke="#9467bd" stroke-width="3"/>
<text x="993" y="66" class="legend">TA-Patient</text>
<text x="82" y="104" class="panel-title">d2 = 100</text>
<line x1="82" y1="413" x2="682" y2="413" class="axis"/>
<line x1="82" y1="128" x2="82" y2="413" class="axis"/>
<line x1="82" y1="341.75" x2="682" y2="341.75" class="grid"/>
<text x="70" y="345.75" text-anchor="end" class="tick">0.12</text>
<line x1="82" y1="270.5" x2="682" y2="270.5" class="grid"/>
<text x="70" y="274.5" text-anchor="end" class="tick">0.25</text>
<line x1="82" y1="199.25" x2="682" y2="199.25" class="grid"/>
<text x="70" y="203.25" text-anchor="end" class="tick">0.38</text>
<line x1="82" y1="128.0" x2="682" y2="128.0" class="grid"/>
<text x="70" y="132.0" text-anchor="end" class="tick">0.50</text>
<line x1="82.0" y1="413" x2="82.0" y2="418" class="axis"/>
<text x="82.0" y="435" text-anchor="middle" class="tick">0</text>
<line x1="202.0" y1="413" x2="202.0" y2="418" class="axis"/>
<text x="202.0" y="435" text-anchor="middle" class="tick">10</text>
<line x1="322.0" y1="413" x2="322.0" y2="418" class="axis"/>
<text x="322.0" y="435" text-anchor="middle" class="tick">20</text>
<line x1="442.0" y1="413" x2="442.0" y2="418" class="axis"/>
<text x="442.0" y="435" text-anchor="middle" class="tick">30</text>
<line x1="562.0" y1="413" x2="562.0" y2="418" class="axis"/>
<text x="562.0" y="435" text-anchor="middle" class="tick">40</text>
<line x1="682.0" y1="413" x2="682.0" y2="418" class="axis"/>
<text x="682.0" y="435" text-anchor="middle" class="tick">50</text>
<text x="382.0" y="463" text-anchor="middle" class="subtitle">time</text>
<polygon points="82.00,413.00 85.00,377.00 88.00,359.68 91.00,346.53 94.00,336.84 97.00,330.15 100.00,325.07 103.00,320.93 106.00,317.31 109.00,314.49 112.00,312.36 115.00,310.48 118.00,308.46 121.00,307.22 124.00,306.06 127.00,305.34 130.00,304.65 133.00,303.76 136.00,302.95 139.00,302.31 142.00,301.63 145.00,301.03 148.00,300.93 151.00,300.49 154.00,300.16 157.00,299.92 160.00,299.58 163.00,299.15 166.00,298.97 169.00,298.69 172.00,298.35 175.00,298.15 178.00,297.86 181.00,297.77 184.00,297.68 187.00,297.61 190.00,297.46 193.00,297.29 196.00,297.04 199.00,297.00 202.00,296.71 205.00,296.56 208.00,296.48 211.00,296.37 214.00,296.19 217.00,296.14 220.00,296.06 223.00,295.91 226.00,295.84 229.00,295.76 232.00,295.66 235.00,295.51 238.00,295.37 241.00,295.34 244.00,295.23 247.00,295.18 250.00,295.08 253.00,294.98 256.00,294.87 259.00,294.80 262.00,294.68 265.00,294.56 268.00,294.50 271.00,294.42 274.00,294.36 277.00,294.27 280.00,294.26 283.00,294.18 286.00,294.13 289.00,294.04 292.00,294.03 295.00,293.96 298.00,293.92 301.00,293.93 304.00,293.88 307.00,293.89 310.00,293.84 313.00,293.78 316.00,293.69 319.00,293.68 322.00,293.70 325.00,293.63 328.00,293.57 331.00,293.54 334.00,293.49 337.00,293.44 340.00,293.40 343.00,293.38 346.00,293.35 349.00,293.32 352.00,293.29 355.00,293.32 358.00,293.31 361.00,293.28 364.00,293.26 367.00,293.27 370.00,293.25 373.00,293.22 376.00,293.22 379.00,293.23 382.00,293.24 385.00,293.20 388.00,293.20 391.00,293.20 394.00,293.19 397.00,293.18 400.00,293.15 403.00,293.10 406.00,293.10 409.00,293.08 412.00,293.05 415.00,293.04 418.00,293.01 421.00,292.97 424.00,292.97 427.00,292.98 430.00,292.97 433.00,292.98 436.00,292.97 439.00,292.97 442.00,292.95 445.00,292.96 448.00,292.96 451.00,292.96 454.00,292.98 457.00,292.98 460.00,292.93 463.00,292.94 466.00,292.93 469.00,292.94 472.00,292.93 475.00,292.95 478.00,292.94 481.00,292.94 484.00,292.94 487.00,292.89 490.00,292.84 493.00,292.84 496.00,292.83 499.00,292.83 502.00,292.79 505.00,292.78 508.00,292.76 511.00,292.77 514.00,292.77 517.00,292.77 520.00,292.75 523.00,292.76 526.00,292.73 529.00,292.77 532.00,292.76 535.00,292.71 538.00,292.72 541.00,292.72 544.00,292.71 547.00,292.71 550.00,292.70 553.00,292.71 556.00,292.69 559.00,292.71 562.00,292.69 565.00,292.65 568.00,292.66 571.00,292.64 574.00,292.63 577.00,292.62 580.00,292.62 583.00,292.60 586.00,292.57 589.00,292.57 592.00,292.52 595.00,292.53 598.00,292.53 601.00,292.51 604.00,292.53 607.00,292.52 610.00,292.50 613.00,292.53 616.00,292.54 619.00,292.55 622.00,292.55 625.00,292.54 628.00,292.52 631.00,292.52 634.00,292.50 637.00,292.49 640.00,292.47 643.00,292.46 646.00,292.46 649.00,292.44 652.00,292.45 655.00,292.45 658.00,292.43 661.00,292.43 664.00,292.43 667.00,292.43 670.00,292.41 673.00,292.39 676.00,292.41 679.00,292.38 682.00,292.37 682.00,293.15 679.00,293.17 676.00,293.17 673.00,293.17 670.00,293.17 667.00,293.19 664.00,293.19 661.00,293.20 658.00,293.22 655.00,293.22 652.00,293.24 649.00,293.25 646.00,293.29 643.00,293.31 640.00,293.34 637.00,293.34 634.00,293.34 631.00,293.34 628.00,293.36 625.00,293.36 622.00,293.36 619.00,293.37 616.00,293.37 613.00,293.40 610.00,293.41 607.00,293.42 604.00,293.44 601.00,293.45 598.00,293.48 595.00,293.49 592.00,293.51 589.00,293.53 586.00,293.55 583.00,293.55 580.00,293.56 577.00,293.60 574.00,293.60 571.00,293.61 568.00,293.61 565.00,293.62 562.00,293.62 559.00,293.63 556.00,293.62 553.00,293.62 550.00,293.65 547.00,293.66 544.00,293.67 541.00,293.68 538.00,293.69 535.00,293.71 532.00,293.75 529.00,293.73 526.00,293.74 523.00,293.77 520.00,293.76 517.00,293.76 514.00,293.78 511.00,293.76 508.00,293.75 505.00,293.76 502.00,293.76 499.00,293.76 496.00,293.74 493.00,293.74 490.00,293.79 487.00,293.79 484.00,293.81 481.00,293.84 478.00,293.86 475.00,293.88 472.00,293.91 469.00,293.93 466.00,293.92 463.00,293.95 460.00,293.94 457.00,293.97 454.00,293.97 451.00,293.96 448.00,294.01 445.00,294.06 442.00,294.10 439.00,294.12 436.00,294.13 433.00,294.14 430.00,294.12 427.00,294.13 424.00,294.16 421.00,294.18 418.00,294.23 415.00,294.25 412.00,294.26 409.00,294.28 406.00,294.33 403.00,294.33 400.00,294.38 397.00,294.40 394.00,294.42 391.00,294.43 388.00,294.46 385.00,294.48 382.00,294.51 379.00,294.47 376.00,294.50 373.00,294.50 370.00,294.54 367.00,294.59 364.00,294.57 361.00,294.60 358.00,294.62 355.00,294.61 352.00,294.60 349.00,294.64 346.00,294.66 343.00,294.66 340.00,294.75 337.00,294.72 334.00,294.77 331.00,294.83 328.00,294.82 325.00,294.86 322.00,294.89 319.00,294.93 316.00,294.96 313.00,295.06 310.00,295.12 307.00,295.20 304.00,295.17 301.00,295.21 298.00,295.27 295.00,295.31 292.00,295.34 289.00,295.35 286.00,295.38 283.00,295.45 280.00,295.54 277.00,295.63 274.00,295.68 271.00,295.82 268.00,295.89 265.00,295.95 262.00,296.02 259.00,296.14 256.00,296.14 253.00,296.14 250.00,296.22 247.00,296.26 244.00,296.37 241.00,296.50 238.00,296.66 235.00,296.79 232.00,296.89 229.00,296.94 226.00,297.06 223.00,297.14 220.00,297.26 217.00,297.46 214.00,297.63 211.00,297.64 208.00,297.85 205.00,298.00 202.00,298.23 199.00,298.36 196.00,298.47 193.00,298.56 190.00,298.69 187.00,298.89 184.00,299.14 181.00,299.35 178.00,299.64 175.00,300.00 172.00,300.27 169.00,300.32 166.00,300.43 163.00,300.70 160.00,301.05 157.00,301.53 154.00,301.90 151.00,302.44 148.00,302.98 145.00,303.31 142.00,303.70 139.00,304.41 136.00,305.00 133.00,305.67 130.00,306.62 127.00,307.90 124.00,309.18 121.00,310.53 118.00,312.06 115.00,313.80 112.00,315.62 109.00,317.84 106.00,320.63 103.00,324.19 100.00,328.46 97.00,334.16 94.00,341.33 91.00,350.04 88.00,363.86 85.00,382.25 82.00,413.00" fill="#1f77b4" opacity="0.13"/>
<polyline points="82.00,413.00 85.00,379.62 88.00,361.77 91.00,348.29 94.00,339.08 97.00,332.16 100.00,326.77 103.00,322.56 106.00,318.97 109.00,316.17 112.00,313.99 115.00,312.14 118.00,310.26 121.00,308.88 124.00,307.62 127.00,306.62 130.00,305.63 133.00,304.71 136.00,303.98 139.00,303.36 142.00,302.66 145.00,302.17 148.00,301.96 151.00,301.46 154.00,301.03 157.00,300.72 160.00,300.32 163.00,299.93 166.00,299.70 169.00,299.51 172.00,299.31 175.00,299.07 178.00,298.75 181.00,298.56 184.00,298.41 187.00,298.25 190.00,298.07 193.00,297.92 196.00,297.76 199.00,297.68 202.00,297.47 205.00,297.28 208.00,297.17 211.00,297.00 214.00,296.91 217.00,296.80 220.00,296.66 223.00,296.52 226.00,296.45 229.00,296.35 232.00,296.28 235.00,296.15 238.00,296.01 241.00,295.92 244.00,295.80 247.00,295.72 250.00,295.65 253.00,295.56 256.00,295.50 259.00,295.47 262.00,295.35 265.00,295.26 268.00,295.19 271.00,295.12 274.00,295.02 277.00,294.95 280.00,294.90 283.00,294.82 286.00,294.75 289.00,294.69 292.00,294.69 295.00,294.64 298.00,294.60 301.00,294.57 304.00,294.53 307.00,294.54 310.00,294.48 313.00,294.42 316.00,294.32 319.00,294.31 322.00,294.29 325.00,294.24 328.00,294.20 331.00,294.18 334.00,294.13 337.00,294.08 340.00,294.07 343.00,294.02 346.00,294.01 349.00,293.98 352.00,293.95 355.00,293.97 358.00,293.96 361.00,293.94 364.00,293.91 367.00,293.93 370.00,293.89 373.00,293.86 376.00,293.86 379.00,293.85 382.00,293.88 385.00,293.84 388.00,293.83 391.00,293.81 394.00,293.80 397.00,293.79 400.00,293.77 403.00,293.72 406.00,293.72 409.00,293.68 412.00,293.66 415.00,293.65 418.00,293.62 421.00,293.58 424.00,293.56 427.00,293.55 430.00,293.54 433.00,293.56 436.00,293.55 439.00,293.54 442.00,293.53 445.00,293.51 448.00,293.49 451.00,293.46 454.00,293.47 457.00,293.48 460.00,293.44 463.00,293.45 466.00,293.43 469.00,293.44 472.00,293.42 475.00,293.42 478.00,293.40 481.00,293.39 484.00,293.37 487.00,293.34 490.00,293.31 493.00,293.29 496.00,293.28 499.00,293.29 502.00,293.28 505.00,293.27 508.00,293.25 511.00,293.26 514.00,293.27 517.00,293.26 520.00,293.26 523.00,293.26 526.00,293.23 529.00,293.25 532.00,293.26 535.00,293.21 538.00,293.21 541.00,293.20 544.00,293.19 547.00,293.18 550.00,293.17 553.00,293.16 556.00,293.15 559.00,293.17 562.00,293.15 565.00,293.13 568.00,293.14 571.00,293.12 574.00,293.12 577.00,293.11 580.00,293.09 583.00,293.08 586.00,293.06 589.00,293.05 592.00,293.01 595.00,293.01 598.00,293.01 601.00,292.98 604.00,292.98 607.00,292.97 610.00,292.96 613.00,292.96 616.00,292.95 619.00,292.96 622.00,292.96 625.00,292.95 628.00,292.94 631.00,292.93 634.00,292.92 637.00,292.91 640.00,292.90 643.00,292.89 646.00,292.87 649.00,292.85 652.00,292.84 655.00,292.83 658.00,292.82 661.00,292.81 664.00,292.81 667.00,292.81 670.00,292.79 673.00,292.78 676.00,292.79 679.00,292.77 682.00,292.76" fill="none" stroke="#1f77b4" stroke-width="2.3" stroke-linejoin="round" stroke-linecap="round"/>
<polygon points="82.00,413.00 85.00,386.99 88.00,374.59 91.00,368.13 94.00,361.29 97.00,355.80 100.00,350.90 103.00,346.44 106.00,341.71 109.00,337.37 112.00,333.40 115.00,329.72 118.00,326.57 121.00,323.77 124.00,321.54 127.00,319.31 130.00,317.61 133.00,315.88 136.00,314.24 139.00,312.99 142.00,311.65 145.00,310.22 148.00,309.24 151.00,308.21 154.00,307.35 157.00,306.39 160.00,305.42 163.00,304.74 166.00,303.82 169.00,303.09 172.00,302.57 175.00,302.09 178.00,301.77 181.00,301.31 184.00,300.82 187.00,300.36 190.00,299.96 193.00,299.65 196.00,299.30 199.00,298.89 202.00,298.63 205.00,298.40 208.00,298.08 211.00,297.89 214.00,297.60 217.00,297.38 220.00,297.14 223.00,296.85 226.00,296.68 229.00,296.51 232.00,296.32 235.00,296.05 238.00,295.89 241.00,295.75 244.00,295.50 247.00,295.35 250.00,295.10 253.00,294.96 256.00,294.81 259.00,294.69 262.00,294.53 265.00,294.36 268.00,294.19 271.00,294.01 274.00,293.96 277.00,293.79 280.00,293.65 283.00,293.45 286.00,293.31 289.00,293.16 292.00,293.05 295.00,292.92 298.00,292.86 301.00,292.72 304.00,292.60 307.00,292.48 310.00,292.44 313.00,292.32 316.00,292.28 319.00,292.20 322.00,292.10 325.00,292.08 328.00,291.98 331.00,291.91 334.00,291.87 337.00,291.80 340.00,291.73 343.00,291.64 346.00,291.58 349.00,291.53 352.00,291.48 355.00,291.38 358.00,291.34 361.00,291.33 364.00,291.31 367.00,291.26 370.00,291.26 373.00,291.23 376.00,291.21 379.00,291.17 382.00,291.14 385.00,291.09 388.00,291.07 391.00,290.99 394.00,290.91 397.00,290.80 400.00,290.72 403.00,290.62 406.00,290.53 409.00,290.48 412.00,290.42 415.00,290.37 418.00,290.35 421.00,290.30 424.00,290.27 427.00,290.23 430.00,290.19 433.00,290.16 436.00,290.12 439.00,290.08 442.00,290.03 445.00,290.03 448.00,290.00 451.00,289.92 454.00,289.90 457.00,289.82 460.00,289.76 463.00,289.72 466.00,289.69 469.00,289.64 472.00,289.61 475.00,289.58 478.00,289.54 481.00,289.52 484.00,289.50 487.00,289.50 490.00,289.48 493.00,289.42 496.00,289.39 499.00,289.37 502.00,289.33 505.00,289.32 508.00,289.29 511.00,289.24 514.00,289.20 517.00,289.20 520.00,289.19 523.00,289.16 526.00,289.14 529.00,289.13 532.00,289.11 535.00,289.08 538.00,289.06 541.00,289.04 544.00,288.99 547.00,288.96 550.00,288.95 553.00,288.93 556.00,288.91 559.00,288.87 562.00,288.87 565.00,288.87 568.00,288.84 571.00,288.80 574.00,288.77 577.00,288.75 580.00,288.71 583.00,288.64 586.00,288.58 589.00,288.54 592.00,288.50 595.00,288.47 598.00,288.46 601.00,288.43 604.00,288.39 607.00,288.38 610.00,288.36 613.00,288.37 616.00,288.35 619.00,288.32 622.00,288.29 625.00,288.29 628.00,288.29 631.00,288.25 634.00,288.22 637.00,288.20 640.00,288.18 643.00,288.16 646.00,288.16 649.00,288.15 652.00,288.14 655.00,288.12 658.00,288.09 661.00,288.08 664.00,288.05 667.00,288.04 670.00,288.03 673.00,288.02 676.00,288.00 679.00,287.98 682.00,287.97 682.00,289.03 679.00,289.05 676.00,289.09 673.00,289.09 670.00,289.13 667.00,289.13 664.00,289.17 661.00,289.19 658.00,289.21 655.00,289.22 652.00,289.26 649.00,289.27 646.00,289.27 643.00,289.29 640.00,289.31 637.00,289.35 634.00,289.37 631.00,289.40 628.00,289.42 625.00,289.47 622.00,289.47 619.00,289.48 616.00,289.50 613.00,289.53 610.00,289.55 607.00,289.56 604.00,289.58 601.00,289.62 598.00,289.64 595.00,289.63 592.00,289.65 589.00,289.65 586.00,289.67 583.00,289.68 580.00,289.72 577.00,289.74 574.00,289.73 571.00,289.78 568.00,289.80 565.00,289.81 562.00,289.84 559.00,289.87 556.00,289.87 553.00,289.90 550.00,289.92 547.00,289.95 544.00,289.98 541.00,289.97 538.00,289.98 535.00,290.00 532.00,289.98 529.00,289.98 526.00,290.01 523.00,290.01 520.00,290.06 517.00,290.09 514.00,290.13 511.00,290.15 508.00,290.16 505.00,290.18 502.00,290.24 499.00,290.30 496.00,290.37 493.00,290.43 490.00,290.44 487.00,290.47 484.00,290.51 481.00,290.57 478.00,290.59 475.00,290.64 472.00,290.66 469.00,290.70 466.00,290.72 463.00,290.73 460.00,290.80 457.00,290.86 454.00,290.89 451.00,290.91 448.00,290.95 445.00,290.97 442.00,291.00 439.00,291.05 436.00,291.13 433.00,291.14 430.00,291.17 427.00,291.21 424.00,291.22 421.00,291.28 418.00,291.36 415.00,291.40 412.00,291.48 409.00,291.55 406.00,291.59 403.00,291.63 400.00,291.73 397.00,291.81 394.00,291.92 391.00,291.97 388.00,292.05 385.00,292.08 382.00,292.13 379.00,292.17 376.00,292.21 373.00,292.25 370.00,292.31 367.00,292.40 364.00,292.45 361.00,292.50 358.00,292.57 355.00,292.64 352.00,292.71 349.00,292.81 346.00,292.86 343.00,292.94 340.00,293.06 337.00,293.19 334.00,293.28 331.00,293.34 328.00,293.46 325.00,293.56 322.00,293.60 319.00,293.68 316.00,293.77 313.00,293.89 310.00,293.97 307.00,294.08 304.00,294.19 301.00,294.29 298.00,294.36 295.00,294.46 292.00,294.60 289.00,294.79 286.00,294.98 283.00,295.12 280.00,295.24 277.00,295.34 274.00,295.54 271.00,295.70 268.00,295.79 265.00,295.94 262.00,296.06 259.00,296.25 256.00,296.44 253.00,296.53 250.00,296.67 247.00,296.86 244.00,297.00 241.00,297.24 238.00,297.36 235.00,297.51 232.00,297.73 229.00,297.97 226.00,298.19 223.00,298.47 220.00,298.67 217.00,298.98 214.00,299.28 211.00,299.68 208.00,300.04 205.00,300.40 202.00,300.85 199.00,301.22 196.00,301.53 193.00,301.82 190.00,302.32 187.00,302.67 184.00,303.17 181.00,303.64 178.00,304.28 175.00,304.81 172.00,305.42 169.00,306.11 166.00,306.70 163.00,307.47 160.00,308.31 157.00,309.26 154.00,310.25 151.00,311.02 148.00,311.92 145.00,312.94 142.00,314.13 139.00,315.56 136.00,317.08 133.00,318.82 130.00,320.68 127.00,322.63 124.00,324.76 121.00,327.07 118.00,329.86 115.00,332.94 112.00,336.42 109.00,340.26 106.00,344.46 103.00,348.72 100.00,353.11 97.00,359.27 94.00,365.12 91.00,371.14 88.00,379.32 85.00,391.58 82.00,413.00" fill="#d62728" opacity="0.13"/>
<polyline points="82.00,413.00 85.00,389.29 88.00,376.95 91.00,369.63 94.00,363.20 97.00,357.54 100.00,352.01 103.00,347.58 106.00,343.08 109.00,338.82 112.00,334.91 115.00,331.33 118.00,328.21 121.00,325.42 124.00,323.15 127.00,320.97 130.00,319.15 133.00,317.35 136.00,315.66 139.00,314.27 142.00,312.89 145.00,311.58 148.00,310.58 151.00,309.61 154.00,308.80 157.00,307.83 160.00,306.86 163.00,306.11 166.00,305.26 169.00,304.60 172.00,304.00 175.00,303.45 178.00,303.02 181.00,302.48 184.00,302.00 187.00,301.51 190.00,301.14 193.00,300.74 196.00,300.41 199.00,300.05 202.00,299.74 205.00,299.40 208.00,299.06 211.00,298.78 214.00,298.44 217.00,298.18 220.00,297.90 223.00,297.66 226.00,297.44 229.00,297.24 232.00,297.03 235.00,296.78 238.00,296.62 241.00,296.49 244.00,296.25 247.00,296.11 250.00,295.88 253.00,295.75 256.00,295.62 259.00,295.47 262.00,295.29 265.00,295.15 268.00,294.99 271.00,294.86 274.00,294.75 277.00,294.57 280.00,294.44 283.00,294.29 286.00,294.15 289.00,293.97 292.00,293.82 295.00,293.69 298.00,293.61 301.00,293.50 304.00,293.40 307.00,293.28 310.00,293.21 313.00,293.11 316.00,293.02 319.00,292.94 322.00,292.85 325.00,292.82 328.00,292.72 331.00,292.63 334.00,292.57 337.00,292.49 340.00,292.39 343.00,292.29 346.00,292.22 349.00,292.17 352.00,292.09 355.00,292.01 358.00,291.96 361.00,291.91 364.00,291.88 367.00,291.83 370.00,291.79 373.00,291.74 376.00,291.71 379.00,291.67 382.00,291.63 385.00,291.58 388.00,291.56 391.00,291.48 394.00,291.41 397.00,291.30 400.00,291.22 403.00,291.13 406.00,291.06 409.00,291.01 412.00,290.95 415.00,290.89 418.00,290.85 421.00,290.79 424.00,290.75 427.00,290.72 430.00,290.68 433.00,290.65 436.00,290.63 439.00,290.57 442.00,290.52 445.00,290.50 448.00,290.47 451.00,290.41 454.00,290.40 457.00,290.34 460.00,290.28 463.00,290.23 466.00,290.20 469.00,290.17 472.00,290.14 475.00,290.11 478.00,290.07 481.00,290.05 484.00,290.00 487.00,289.98 490.00,289.96 493.00,289.92 496.00,289.88 499.00,289.83 502.00,289.78 505.00,289.75 508.00,289.73 511.00,289.70 514.00,289.66 517.00,289.65 520.00,289.63 523.00,289.58 526.00,289.58 529.00,289.56 532.00,289.55 535.00,289.54 538.00,289.52 541.00,289.51 544.00,289.48 547.00,289.46 550.00,289.43 553.00,289.41 556.00,289.39 559.00,289.37 562.00,289.35 565.00,289.34 568.00,289.32 571.00,289.29 574.00,289.25 577.00,289.24 580.00,289.21 583.00,289.16 586.00,289.12 589.00,289.09 592.00,289.07 595.00,289.05 598.00,289.05 601.00,289.02 604.00,288.99 607.00,288.97 610.00,288.96 613.00,288.95 616.00,288.93 619.00,288.90 622.00,288.88 625.00,288.88 628.00,288.85 631.00,288.83 634.00,288.80 637.00,288.78 640.00,288.75 643.00,288.72 646.00,288.72 649.00,288.71 652.00,288.70 655.00,288.67 658.00,288.65 661.00,288.64 664.00,288.61 667.00,288.59 670.00,288.58 673.00,288.56 676.00,288.54 679.00,288.52 682.00,288.50" fill="none" stroke="#d62728" stroke-width="2.3" stroke-linejoin="round" stroke-linecap="round"/>
<polygon points="82.00,413.00 85.00,378.83 88.00,362.23 91.00,350.48 94.00,342.56 97.00,337.14 100.00,332.46 103.00,328.90 106.00,326.39 109.00,323.72 112.00,321.65 115.00,319.78 118.00,318.72 121.00,317.73 124.00,316.84 127.00,315.86 130.00,315.12 133.00,314.63 136.00,314.26 139.00,313.88 142.00,313.33 145.00,312.78 148.00,312.40 151.00,312.12 154.00,311.79 157.00,311.40 160.00,311.12 163.00,310.88 166.00,310.69 169.00,310.54 172.00,310.37 175.00,310.19 178.00,310.12 181.00,309.84 184.00,309.67 187.00,309.55 190.00,309.39 193.00,309.31 196.00,309.20 199.00,309.03 202.00,308.90 205.00,308.88 208.00,308.82 211.00,308.66 214.00,308.50 217.00,308.37 220.00,308.21 223.00,308.16 226.00,308.11 229.00,308.06 232.00,308.09 235.00,308.04 238.00,308.03 241.00,307.88 244.00,307.85 247.00,307.76 250.00,307.69 253.00,307.67 256.00,307.62 259.00,307.61 262.00,307.56 265.00,307.51 268.00,307.43 271.00,307.38 274.00,307.37 277.00,307.32 280.00,307.22 283.00,307.10 286.00,307.08 289.00,307.12 292.00,307.06 295.00,307.06 298.00,306.99 301.00,306.91 304.00,306.90 307.00,306.86 310.00,306.89 313.00,306.82 316.00,306.80 319.00,306.74 322.00,306.66 325.00,306.60 328.00,306.55 331.00,306.53 334.00,306.54 337.00,306.56 340.00,306.55 343.00,306.53 346.00,306.53 349.00,306.51 352.00,306.51 355.00,306.50 358.00,306.51 361.00,306.46 364.00,306.45 367.00,306.44 370.00,306.40 373.00,306.37 376.00,306.39 379.00,306.37 382.00,306.39 385.00,306.40 388.00,306.36 391.00,306.33 394.00,306.33 397.00,306.34 400.00,306.30 403.00,306.31 406.00,306.30 409.00,306.32 412.00,306.30 415.00,306.26 418.00,306.28 421.00,306.29 424.00,306.26 427.00,306.25 430.00,306.23 433.00,306.24 436.00,306.19 439.00,306.19 442.00,306.18 445.00,306.14 448.00,306.13 451.00,306.13 454.00,306.12 457.00,306.10 460.00,306.09 463.00,306.09 466.00,306.07 469.00,306.07 472.00,306.06 475.00,306.09 478.00,306.08 481.00,306.09 484.00,306.06 487.00,306.05 490.00,306.04 493.00,306.03 496.00,306.02 499.00,306.03 502.00,306.02 505.00,306.02 508.00,306.03 511.00,306.02 514.00,306.03 517.00,306.04 520.00,306.03 523.00,306.02 526.00,306.00 529.00,306.00 532.00,305.99 535.00,305.99 538.00,305.98 541.00,305.99 544.00,306.00 547.00,306.00 550.00,305.98 553.00,305.96 556.00,305.95 559.00,305.96 562.00,305.95 565.00,305.93 568.00,305.92 571.00,305.91 574.00,305.90 577.00,305.89 580.00,305.88 583.00,305.87 586.00,305.86 589.00,305.86 592.00,305.84 595.00,305.83 598.00,305.80 601.00,305.82 604.00,305.81 607.00,305.81 610.00,305.81 613.00,305.78 616.00,305.79 619.00,305.77 622.00,305.78 625.00,305.76 628.00,305.77 631.00,305.77 634.00,305.75 637.00,305.74 640.00,305.71 643.00,305.69 646.00,305.69 649.00,305.67 652.00,305.67 655.00,305.66 658.00,305.64 661.00,305.65 664.00,305.67 667.00,305.67 670.00,305.66 673.00,305.67 676.00,305.66 679.00,305.66 682.00,305.66 682.00,306.32 679.00,306.31 676.00,306.33 673.00,306.33 670.00,306.34 667.00,306.35 664.00,306.37 661.00,306.40 658.00,306.41 655.00,306.42 652.00,306.43 649.00,306.43 646.00,306.43 643.00,306.44 640.00,306.45 637.00,306.45 634.00,306.43 631.00,306.41 628.00,306.41 625.00,306.40 622.00,306.40 619.00,306.39 616.00,306.39 613.00,306.42 610.00,306.42 607.00,306.42 604.00,306.45 601.00,306.46 598.00,306.48 595.00,306.48 592.00,306.50 589.00,306.52 586.00,306.51 583.00,306.51 580.00,306.53 577.00,306.55 574.00,306.56 571.00,306.57 568.00,306.56 565.00,306.57 562.00,306.58 559.00,306.59 556.00,306.62 553.00,306.62 550.00,306.66 547.00,306.65 544.00,306.67 541.00,306.69 538.00,306.68 535.00,306.72 532.00,306.72 529.00,306.72 526.00,306.69 523.00,306.71 520.00,306.73 517.00,306.79 514.00,306.82 511.00,306.83 508.00,306.84 505.00,306.85 502.00,306.87 499.00,306.88 496.00,306.90 493.00,306.91 490.00,306.93 487.00,306.96 484.00,306.97 481.00,306.97 478.00,307.01 475.00,307.01 472.00,307.02 469.00,307.03 466.00,307.03 463.00,307.03 460.00,307.03 457.00,307.06 454.00,307.07 451.00,307.09 448.00,307.06 445.00,307.07 442.00,307.07 439.00,307.09 436.00,307.10 433.00,307.13 430.00,307.18 427.00,307.20 424.00,307.22 421.00,307.22 418.00,307.21 415.00,307.23 412.00,307.24 409.00,307.24 406.00,307.27 403.00,307.30 400.00,307.34 397.00,307.33 394.00,307.32 391.00,307.33 388.00,307.36 385.00,307.39 382.00,307.39 379.00,307.41 376.00,307.42 373.00,307.43 370.00,307.46 367.00,307.50 364.00,307.52 361.00,307.51 358.00,307.54 355.00,307.56 352.00,307.64 349.00,307.66 346.00,307.65 343.00,307.66 340.00,307.73 337.00,307.74 334.00,307.75 331.00,307.79 328.00,307.80 325.00,307.84 322.00,307.86 319.00,307.85 316.00,307.86 313.00,307.88 310.00,307.96 307.00,308.00 304.00,308.06 301.00,308.12 298.00,308.17 295.00,308.21 292.00,308.29 289.00,308.40 286.00,308.47 283.00,308.56 280.00,308.57 277.00,308.60 274.00,308.68 271.00,308.67 268.00,308.73 265.00,308.76 262.00,308.85 259.00,308.90 256.00,308.98 253.00,309.05 250.00,309.13 247.00,309.19 244.00,309.29 241.00,309.36 238.00,309.46 235.00,309.58 232.00,309.58 229.00,309.69 226.00,309.79 223.00,309.96 220.00,309.97 217.00,310.01 214.00,310.10 211.00,310.16 208.00,310.24 205.00,310.30 202.00,310.39 199.00,310.51 196.00,310.64 193.00,310.73 190.00,310.85 187.00,311.01 184.00,311.11 181.00,311.20 178.00,311.44 175.00,311.61 172.00,311.91 169.00,312.11 166.00,312.32 163.00,312.70 160.00,312.90 157.00,313.08 154.00,313.26 151.00,313.53 148.00,313.82 145.00,314.35 142.00,314.83 139.00,315.14 136.00,315.69 133.00,316.37 130.00,317.11 127.00,317.84 124.00,318.70 121.00,319.68 118.00,320.99 115.00,321.99 112.00,323.81 109.00,325.93 106.00,329.21 103.00,332.44 100.00,336.46 97.00,341.07 94.00,346.40 91.00,355.50 88.00,366.37 85.00,382.74 82.00,413.00" fill="#2ca02c" opacity="0.13"/>
<polyline points="82.00,413.00 85.00,380.78 88.00,364.30 91.00,352.99 94.00,344.48 97.00,339.11 100.00,334.46 103.00,330.67 106.00,327.80 109.00,324.83 112.00,322.73 115.00,320.89 118.00,319.85 121.00,318.71 124.00,317.77 127.00,316.85 130.00,316.12 133.00,315.50 136.00,314.98 139.00,314.51 142.00,314.08 145.00,313.56 148.00,313.11 151.00,312.83 154.00,312.52 157.00,312.24 160.00,312.01 163.00,311.79 166.00,311.51 169.00,311.33 172.00,311.14 175.00,310.90 178.00,310.78 181.00,310.52 184.00,310.39 187.00,310.28 190.00,310.12 193.00,310.02 196.00,309.92 199.00,309.77 202.00,309.64 205.00,309.59 208.00,309.53 211.00,309.41 214.00,309.30 217.00,309.19 220.00,309.09 223.00,309.06 226.00,308.95 229.00,308.88 232.00,308.83 235.00,308.81 238.00,308.75 241.00,308.62 244.00,308.57 247.00,308.48 250.00,308.41 253.00,308.36 256.00,308.30 259.00,308.25 262.00,308.20 265.00,308.14 268.00,308.08 271.00,308.03 274.00,308.03 277.00,307.96 280.00,307.90 283.00,307.83 286.00,307.78 289.00,307.76 292.00,307.68 295.00,307.64 298.00,307.58 301.00,307.51 304.00,307.48 307.00,307.43 310.00,307.42 313.00,307.35 316.00,307.33 319.00,307.30 322.00,307.26 325.00,307.22 328.00,307.17 331.00,307.16 334.00,307.14 337.00,307.15 340.00,307.14 343.00,307.10 346.00,307.09 349.00,307.08 352.00,307.08 355.00,307.03 358.00,307.02 361.00,306.98 364.00,306.98 367.00,306.97 370.00,306.93 373.00,306.90 376.00,306.91 379.00,306.89 382.00,306.89 385.00,306.90 388.00,306.86 391.00,306.83 394.00,306.83 397.00,306.84 400.00,306.82 403.00,306.81 406.00,306.79 409.00,306.78 412.00,306.77 415.00,306.74 418.00,306.75 421.00,306.76 424.00,306.74 427.00,306.73 430.00,306.71 433.00,306.68 436.00,306.64 439.00,306.64 442.00,306.62 445.00,306.61 448.00,306.60 451.00,306.61 454.00,306.60 457.00,306.58 460.00,306.56 463.00,306.56 466.00,306.55 469.00,306.55 472.00,306.54 475.00,306.55 478.00,306.55 481.00,306.53 484.00,306.52 487.00,306.51 490.00,306.49 493.00,306.47 496.00,306.46 499.00,306.45 502.00,306.45 505.00,306.43 508.00,306.44 511.00,306.42 514.00,306.42 517.00,306.41 520.00,306.38 523.00,306.36 526.00,306.35 529.00,306.36 532.00,306.35 535.00,306.35 538.00,306.33 541.00,306.34 544.00,306.34 547.00,306.33 550.00,306.32 553.00,306.29 556.00,306.28 559.00,306.27 562.00,306.26 565.00,306.25 568.00,306.24 571.00,306.24 574.00,306.23 577.00,306.22 580.00,306.21 583.00,306.19 586.00,306.19 589.00,306.19 592.00,306.17 595.00,306.15 598.00,306.14 601.00,306.14 604.00,306.13 607.00,306.12 610.00,306.11 613.00,306.10 616.00,306.09 619.00,306.08 622.00,306.09 625.00,306.08 628.00,306.09 631.00,306.09 634.00,306.09 637.00,306.09 640.00,306.08 643.00,306.07 646.00,306.06 649.00,306.05 652.00,306.05 655.00,306.04 658.00,306.02 661.00,306.03 664.00,306.02 667.00,306.01 670.00,306.00 673.00,306.00 676.00,305.99 679.00,305.99 682.00,305.99" fill="none" stroke="#2ca02c" stroke-width="2.3" stroke-linejoin="round" stroke-linecap="round"/>
<polygon points="82.00,413.00 85.00,385.56 88.00,375.86 91.00,370.67 94.00,369.11 97.00,367.65 100.00,366.98 103.00,366.36 106.00,365.78 109.00,365.12 112.00,364.25 115.00,363.68 118.00,363.46 121.00,363.17 124.00,362.95 127.00,362.51 130.00,362.26 133.00,362.00 136.00,361.87 139.00,361.58 142.00,361.42 145.00,361.17 148.00,360.99 151.00,360.79 154.00,360.64 157.00,360.42 160.00,360.30 163.00,360.16 166.00,360.01 169.00,359.79 172.00,359.65 175.00,359.57 178.00,359.56 181.00,359.50 184.00,359.42 187.00,359.38 190.00,359.32 193.00,359.17 196.00,359.03 199.00,358.94 202.00,358.83 205.00,358.80 208.00,358.73 211.00,358.64 214.00,358.60 217.00,358.56 220.00,358.52 223.00,358.44 226.00,358.40 229.00,358.34 232.00,358.29 235.00,358.27 238.00,358.24 241.00,358.20 244.00,358.18 247.00,358.16 250.00,358.13 253.00,358.12 256.00,358.09 259.00,358.06 262.00,358.00 265.00,358.00 268.00,358.00 271.00,357.99 274.00,357.97 277.00,357.95 280.00,357.90 283.00,357.87 286.00,357.87 289.00,357.90 292.00,357.90 295.00,357.86 298.00,357.80 301.00,357.75 304.00,357.73 307.00,357.71 310.00,357.69 313.00,357.66 316.00,357.62 319.00,357.61 322.00,357.57 325.00,357.55 328.00,357.52 331.00,357.52 334.00,357.48 337.00,357.47 340.00,357.47 343.00,357.46 346.00,357.48 349.00,357.44 352.00,357.40 355.00,357.38 358.00,357.38 361.00,357.37 364.00,357.38 367.00,357.38 370.00,357.39 373.00,357.40 376.00,357.37 379.00,357.37 382.00,357.35 385.00,357.36 388.00,357.35 391.00,357.35 394.00,357.35 397.00,357.35 400.00,357.34 403.00,357.34 406.00,357.32 409.00,357.34 412.00,357.33 415.00,357.32 418.00,357.30 421.00,357.28 424.00,357.27 427.00,357.26 430.00,357.26 433.00,357.25 436.00,357.24 439.00,357.24 442.00,357.25 445.00,357.25 448.00,357.25 451.00,357.25 454.00,357.25 457.00,357.27 460.00,357.29 463.00,357.31 466.00,357.29 469.00,357.31 472.00,357.33 475.00,357.32 478.00,357.31 481.00,357.32 484.00,357.34 487.00,357.33 490.00,357.34 493.00,357.35 496.00,357.36 499.00,357.37 502.00,357.38 505.00,357.37 508.00,357.37 511.00,357.35 514.00,357.36 517.00,357.36 520.00,357.36 523.00,357.35 526.00,357.35 529.00,357.35 532.00,357.37 535.00,357.39 538.00,357.40 541.00,357.40 544.00,357.41 547.00,357.39 550.00,357.39 553.00,357.39 556.00,357.40 559.00,357.36 562.00,357.35 565.00,357.37 568.00,357.37 571.00,357.37 574.00,357.37 577.00,357.36 580.00,357.36 583.00,357.35 586.00,357.37 589.00,357.35 592.00,357.35 595.00,357.34 598.00,357.35 601.00,357.35 604.00,357.34 607.00,357.35 610.00,357.35 613.00,357.34 616.00,357.35 619.00,357.36 622.00,357.36 625.00,357.37 628.00,357.36 631.00,357.36 634.00,357.36 637.00,357.36 640.00,357.37 643.00,357.36 646.00,357.34 649.00,357.34 652.00,357.33 655.00,357.32 658.00,357.33 661.00,357.34 664.00,357.35 667.00,357.35 670.00,357.36 673.00,357.36 676.00,357.35 679.00,357.37 682.00,357.37 682.00,358.05 679.00,358.05 676.00,358.06 673.00,358.07 670.00,358.06 667.00,358.06 664.00,358.06 661.00,358.06 658.00,358.07 655.00,358.09 652.00,358.10 649.00,358.10 646.00,358.10 643.00,358.12 640.00,358.13 637.00,358.14 634.00,358.13 631.00,358.11 628.00,358.12 625.00,358.13 622.00,358.15 619.00,358.15 616.00,358.15 613.00,358.16 610.00,358.16 607.00,358.17 604.00,358.17 601.00,358.19 598.00,358.19 595.00,358.20 592.00,358.20 589.00,358.21 586.00,358.22 583.00,358.22 580.00,358.23 577.00,358.24 574.00,358.23 571.00,358.24 568.00,358.25 565.00,358.24 562.00,358.25 559.00,358.26 556.00,358.25 553.00,358.26 550.00,358.25 547.00,358.25 544.00,358.23 541.00,358.20 538.00,358.20 535.00,358.21 532.00,358.22 529.00,358.25 526.00,358.24 523.00,358.27 520.00,358.28 517.00,358.29 514.00,358.30 511.00,358.32 508.00,358.32 505.00,358.33 502.00,358.33 499.00,358.32 496.00,358.35 493.00,358.36 490.00,358.37 487.00,358.38 484.00,358.39 481.00,358.38 478.00,358.38 475.00,358.41 472.00,358.44 469.00,358.45 466.00,358.44 463.00,358.45 460.00,358.47 457.00,358.48 454.00,358.47 451.00,358.49 448.00,358.52 445.00,358.55 442.00,358.58 439.00,358.58 436.00,358.57 433.00,358.58 430.00,358.58 427.00,358.60 424.00,358.62 421.00,358.63 418.00,358.65 415.00,358.66 412.00,358.66 409.00,358.67 406.00,358.65 403.00,358.66 400.00,358.65 397.00,358.65 394.00,358.67 391.00,358.66 388.00,358.69 385.00,358.71 382.00,358.72 379.00,358.75 376.00,358.77 373.00,358.79 370.00,358.83 367.00,358.88 364.00,358.90 361.00,358.94 358.00,358.97 355.00,358.96 352.00,358.94 349.00,358.93 346.00,358.96 343.00,359.00 340.00,359.02 337.00,359.02 334.00,359.05 331.00,359.09 328.00,359.14 325.00,359.18 322.00,359.21 319.00,359.27 316.00,359.31 313.00,359.38 310.00,359.41 307.00,359.42 304.00,359.48 301.00,359.56 298.00,359.58 295.00,359.61 292.00,359.61 289.00,359.61 286.00,359.64 283.00,359.66 280.00,359.67 277.00,359.67 274.00,359.69 271.00,359.65 268.00,359.71 265.00,359.71 262.00,359.72 259.00,359.73 256.00,359.77 253.00,359.83 250.00,359.83 247.00,359.91 244.00,359.99 241.00,360.07 238.00,360.09 235.00,360.12 232.00,360.15 229.00,360.21 226.00,360.26 223.00,360.36 220.00,360.45 217.00,360.54 214.00,360.61 211.00,360.65 208.00,360.67 205.00,360.74 202.00,360.83 199.00,360.85 196.00,360.98 193.00,360.97 190.00,361.07 187.00,361.20 184.00,361.25 181.00,361.37 178.00,361.54 175.00,361.67 172.00,361.68 169.00,361.86 166.00,362.02 163.00,362.08 160.00,362.29 157.00,362.38 154.00,362.60 151.00,362.90 148.00,363.21 145.00,363.39 142.00,363.63 139.00,363.85 136.00,364.18 133.00,364.45 130.00,364.79 127.00,364.94 124.00,365.25 121.00,365.60 118.00,365.90 115.00,366.71 112.00,367.39 109.00,367.93 106.00,368.66 103.00,369.49 100.00,370.19 97.00,371.64 94.00,373.75 91.00,376.59 88.00,381.81 85.00,389.78 82.00,413.00" fill="#9467bd" opacity="0.13"/>
<polyline points="82.00,413.00 85.00,387.67 88.00,378.83 91.00,373.63 94.00,371.43 97.00,369.65 100.00,368.59 103.00,367.93 106.00,367.22 109.00,366.53 112.00,365.82 115.00,365.19 118.00,364.68 121.00,364.38 124.00,364.10 127.00,363.72 130.00,363.52 133.00,363.23 136.00,363.03 139.00,362.71 142.00,362.52 145.00,362.28 148.00,362.10 151.00,361.84 154.00,361.62 157.00,361.40 160.00,361.29 163.00,361.12 166.00,361.01 169.00,360.83 172.00,360.66 175.00,360.62 178.00,360.55 181.00,360.43 184.00,360.33 187.00,360.29 190.00,360.20 193.00,360.07 196.00,360.00 199.00,359.90 202.00,359.83 205.00,359.77 208.00,359.70 211.00,359.64 214.00,359.60 217.00,359.55 220.00,359.49 223.00,359.40 226.00,359.33 229.00,359.27 232.00,359.22 235.00,359.19 238.00,359.16 241.00,359.13 244.00,359.08 247.00,359.03 250.00,358.98 253.00,358.97 256.00,358.93 259.00,358.89 262.00,358.86 265.00,358.86 268.00,358.86 271.00,358.82 274.00,358.83 277.00,358.81 280.00,358.78 283.00,358.77 286.00,358.76 289.00,358.75 292.00,358.76 295.00,358.73 298.00,358.69 301.00,358.66 304.00,358.61 307.00,358.57 310.00,358.55 313.00,358.52 316.00,358.46 319.00,358.44 322.00,358.39 325.00,358.36 328.00,358.33 331.00,358.30 334.00,358.26 337.00,358.25 340.00,358.25 343.00,358.23 346.00,358.22 349.00,358.19 352.00,358.17 355.00,358.17 358.00,358.17 361.00,358.16 364.00,358.14 367.00,358.13 370.00,358.11 373.00,358.10 376.00,358.07 379.00,358.06 382.00,358.03 385.00,358.03 388.00,358.02 391.00,358.00 394.00,358.01 397.00,358.00 400.00,357.99 403.00,358.00 406.00,357.99 409.00,358.00 412.00,357.99 415.00,357.99 418.00,357.98 421.00,357.96 424.00,357.95 427.00,357.93 430.00,357.92 433.00,357.91 436.00,357.91 439.00,357.91 442.00,357.91 445.00,357.90 448.00,357.88 451.00,357.87 454.00,357.86 457.00,357.88 460.00,357.88 463.00,357.88 466.00,357.86 469.00,357.88 472.00,357.88 475.00,357.87 478.00,357.85 481.00,357.85 484.00,357.87 487.00,357.86 490.00,357.86 493.00,357.86 496.00,357.85 499.00,357.84 502.00,357.86 505.00,357.85 508.00,357.84 511.00,357.84 514.00,357.83 517.00,357.82 520.00,357.82 523.00,357.81 526.00,357.80 529.00,357.80 532.00,357.80 535.00,357.80 538.00,357.80 541.00,357.80 544.00,357.82 547.00,357.82 550.00,357.82 553.00,357.82 556.00,357.82 559.00,357.81 562.00,357.80 565.00,357.81 568.00,357.81 571.00,357.81 574.00,357.80 577.00,357.80 580.00,357.80 583.00,357.79 586.00,357.79 589.00,357.78 592.00,357.78 595.00,357.77 598.00,357.77 601.00,357.77 604.00,357.76 607.00,357.76 610.00,357.76 613.00,357.75 616.00,357.75 619.00,357.75 622.00,357.75 625.00,357.75 628.00,357.74 631.00,357.74 634.00,357.75 637.00,357.75 640.00,357.75 643.00,357.74 646.00,357.72 649.00,357.72 652.00,357.72 655.00,357.70 658.00,357.70 661.00,357.70 664.00,357.70 667.00,357.71 670.00,357.71 673.00,357.71 676.00,357.71 679.00,357.71 682.00,357.71" fill="none" stroke="#9467bd" stroke-width="2.3" stroke-linejoin="round" stroke-linecap="round"/>
<text x="766" y="104" class="panel-title">d2 = 1000</text>
<line x1="766" y1="413" x2="1366" y2="413" class="axis"/>
<line x1="766" y1="128" x2="766" y2="413" class="axis"/>
<line x1="766" y1="341.75" x2="1366" y2="341.75" class="grid"/>
<line x1="766" y1="270.5" x2="1366" y2="270.5" class="grid"/>
<line x1="766" y1="199.25" x2="1366" y2="199.25" class="grid"/>
<line x1="766" y1="128.0" x2="1366" y2="128.0" class="grid"/>
<line x1="766.0" y1="413" x2="766.0" y2="418" class="axis"/>
<text x="766.0" y="435" text-anchor="middle" class="tick">0</text>
<line x1="886.0" y1="413" x2="886.0" y2="418" class="axis"/>
<text x="886.0" y="435" text-anchor="middle" class="tick">10</text>
<line x1="1006.0" y1="413" x2="1006.0" y2="418" class="axis"/>
<text x="1006.0" y="435" text-anchor="middle" class="tick">20</text>
<line x1="1126.0" y1="413" x2="1126.0" y2="418" class="axis"/>
<text x="1126.0" y="435" text-anchor="middle" class="tick">30</text>
<line x1="1246.0" y1="413" x2="1246.0" y2="418" class="axis"/>
<text x="1246.0" y="435" text-anchor="middle" class="tick">40</text>
<line x1="1366.0" y1="413" x2="1366.0" y2="418" class="axis"/>
<text x="1366.0" y="435" text-anchor="middle" class="tick">50</text>
<text x="1066.0" y="463" text-anchor="middle" class="subtitle">time</text>
<polygon points="766.00,413.00 769.00,380.03 772.00,361.91 775.00,348.48 778.00,338.22 781.00,330.57 784.00,324.90 787.00,319.72 790.00,316.07 793.00,313.12 796.00,310.93 799.00,308.73 802.00,307.43 805.00,306.03 808.00,304.86 811.00,303.62 814.00,302.51 817.00,301.75 820.00,301.07 823.00,300.30 826.00,299.74 829.00,299.32 832.00,298.68 835.00,298.21 838.00,297.58 841.00,297.22 844.00,297.06 847.00,296.71 850.00,296.46 853.00,296.13 856.00,295.80 859.00,295.55 862.00,295.34 865.00,295.15 868.00,294.97 871.00,294.77 874.00,294.72 877.00,294.70 880.00,294.48 883.00,294.33 886.00,294.12 889.00,294.02 892.00,293.94 895.00,293.84 898.00,293.69 901.00,293.62 904.00,293.60 907.00,293.48 910.00,293.41 913.00,293.31 916.00,293.23 919.00,293.08 922.00,292.97 925.00,292.91 928.00,292.83 931.00,292.77 934.00,292.68 937.00,292.56 940.00,292.44 943.00,292.41 946.00,292.32 949.00,292.20 952.00,292.18 955.00,292.08 958.00,292.02 961.00,291.99 964.00,291.92 967.00,291.86 970.00,291.84 973.00,291.85 976.00,291.81 979.00,291.72 982.00,291.67 985.00,291.64 988.00,291.62 991.00,291.58 994.00,291.56 997.00,291.53 1000.00,291.53 1003.00,291.42 1006.00,291.42 1009.00,291.39 1012.00,291.37 1015.00,291.32 1018.00,291.28 1021.00,291.16 1024.00,291.07 1027.00,291.01 1030.00,290.97 1033.00,290.93 1036.00,290.91 1039.00,290.92 1042.00,290.95 1045.00,290.95 1048.00,290.91 1051.00,290.87 1054.00,290.85 1057.00,290.78 1060.00,290.76 1063.00,290.71 1066.00,290.65 1069.00,290.60 1072.00,290.55 1075.00,290.54 1078.00,290.54 1081.00,290.50 1084.00,290.46 1087.00,290.45 1090.00,290.40 1093.00,290.39 1096.00,290.38 1099.00,290.38 1102.00,290.40 1105.00,290.34 1108.00,290.32 1111.00,290.29 1114.00,290.30 1117.00,290.28 1120.00,290.24 1123.00,290.22 1126.00,290.19 1129.00,290.19 1132.00,290.19 1135.00,290.14 1138.00,290.13 1141.00,290.11 1144.00,290.08 1147.00,290.10 1150.00,290.10 1153.00,290.11 1156.00,290.09 1159.00,290.06 1162.00,290.04 1165.00,290.03 1168.00,290.00 1171.00,289.98 1174.00,289.96 1177.00,289.95 1180.00,289.96 1183.00,289.95 1186.00,289.93 1189.00,289.92 1192.00,289.93 1195.00,289.92 1198.00,289.92 1201.00,289.93 1204.00,289.90 1207.00,289.92 1210.00,289.94 1213.00,289.91 1216.00,289.90 1219.00,289.87 1222.00,289.88 1225.00,289.86 1228.00,289.85 1231.00,289.86 1234.00,289.86 1237.00,289.85 1240.00,289.84 1243.00,289.84 1246.00,289.84 1249.00,289.83 1252.00,289.84 1255.00,289.84 1258.00,289.82 1261.00,289.82 1264.00,289.79 1267.00,289.80 1270.00,289.79 1273.00,289.80 1276.00,289.77 1279.00,289.76 1282.00,289.74 1285.00,289.74 1288.00,289.73 1291.00,289.71 1294.00,289.71 1297.00,289.71 1300.00,289.72 1303.00,289.70 1306.00,289.67 1309.00,289.64 1312.00,289.65 1315.00,289.65 1318.00,289.63 1321.00,289.63 1324.00,289.65 1327.00,289.62 1330.00,289.61 1333.00,289.59 1336.00,289.59 1339.00,289.59 1342.00,289.58 1345.00,289.59 1348.00,289.57 1351.00,289.57 1354.00,289.55 1357.00,289.53 1360.00,289.54 1363.00,289.53 1366.00,289.52 1366.00,290.36 1363.00,290.37 1360.00,290.37 1357.00,290.38 1354.00,290.38 1351.00,290.41 1348.00,290.39 1345.00,290.42 1342.00,290.42 1339.00,290.43 1336.00,290.46 1333.00,290.48 1330.00,290.48 1327.00,290.49 1324.00,290.47 1321.00,290.48 1318.00,290.48 1315.00,290.48 1312.00,290.48 1309.00,290.47 1306.00,290.47 1303.00,290.47 1300.00,290.50 1297.00,290.50 1294.00,290.51 1291.00,290.52 1288.00,290.50 1285.00,290.53 1282.00,290.57 1279.00,290.58 1276.00,290.59 1273.00,290.57 1270.00,290.59 1267.00,290.57 1264.00,290.59 1261.00,290.63 1258.00,290.62 1255.00,290.62 1252.00,290.61 1249.00,290.63 1246.00,290.67 1243.00,290.68 1240.00,290.68 1237.00,290.68 1234.00,290.69 1231.00,290.71 1228.00,290.73 1225.00,290.74 1222.00,290.74 1219.00,290.76 1216.00,290.76 1213.00,290.76 1210.00,290.77 1207.00,290.76 1204.00,290.80 1201.00,290.82 1198.00,290.84 1195.00,290.89 1192.00,290.90 1189.00,290.91 1186.00,290.89 1183.00,290.91 1180.00,290.95 1177.00,290.97 1174.00,290.96 1171.00,290.96 1168.00,290.97 1165.00,290.98 1162.00,290.99 1159.00,291.00 1156.00,291.01 1153.00,290.99 1150.00,291.03 1147.00,291.05 1144.00,291.06 1141.00,291.06 1138.00,291.04 1135.00,291.07 1132.00,291.06 1129.00,291.10 1126.00,291.13 1123.00,291.14 1120.00,291.19 1117.00,291.22 1114.00,291.26 1111.00,291.29 1108.00,291.32 1105.00,291.35 1102.00,291.38 1099.00,291.40 1096.00,291.42 1093.00,291.44 1090.00,291.48 1087.00,291.50 1084.00,291.53 1081.00,291.57 1078.00,291.55 1075.00,291.57 1072.00,291.60 1069.00,291.65 1066.00,291.68 1063.00,291.70 1060.00,291.74 1057.00,291.81 1054.00,291.86 1051.00,291.91 1048.00,291.92 1045.00,291.94 1042.00,291.96 1039.00,292.01 1036.00,292.02 1033.00,292.03 1030.00,292.08 1027.00,292.11 1024.00,292.13 1021.00,292.15 1018.00,292.15 1015.00,292.25 1012.00,292.23 1009.00,292.33 1006.00,292.33 1003.00,292.41 1000.00,292.44 997.00,292.46 994.00,292.46 991.00,292.47 988.00,292.55 985.00,292.61 982.00,292.65 979.00,292.67 976.00,292.74 973.00,292.80 970.00,292.88 967.00,292.88 964.00,292.93 961.00,292.97 958.00,293.07 955.00,293.16 952.00,293.22 949.00,293.35 946.00,293.41 943.00,293.41 940.00,293.44 937.00,293.52 934.00,293.63 931.00,293.65 928.00,293.75 925.00,293.96 922.00,294.05 919.00,294.15 916.00,294.25 913.00,294.38 910.00,294.55 907.00,294.69 904.00,294.80 901.00,294.98 898.00,295.10 895.00,295.20 892.00,295.37 889.00,295.45 886.00,295.56 883.00,295.63 880.00,295.84 877.00,296.08 874.00,296.26 871.00,296.48 868.00,296.73 865.00,296.92 862.00,297.11 859.00,297.49 856.00,297.81 853.00,298.16 850.00,298.39 847.00,298.75 844.00,299.15 841.00,299.51 838.00,299.86 835.00,300.24 832.00,300.74 829.00,301.27 826.00,301.75 823.00,302.52 820.00,303.36 817.00,304.09 814.00,304.89 811.00,305.82 808.00,307.03 805.00,308.16 802.00,309.70 799.00,311.24 796.00,313.51 793.00,315.98 790.00,319.64 787.00,323.77 784.00,329.00 781.00,334.83 778.00,342.74 775.00,353.06 772.00,368.27 769.00,386.60 766.00,413.00" fill="#1f77b4" opacity="0.13"/>
<polyline points="766.00,413.00 769.00,383.31 772.00,365.09 775.00,350.77 778.00,340.48 781.00,332.70 784.00,326.95 787.00,321.74 790.00,317.86 793.00,314.55 796.00,312.22 799.00,309.98 802.00,308.57 805.00,307.09 808.00,305.94 811.00,304.72 814.00,303.70 817.00,302.92 820.00,302.21 823.00,301.41 826.00,300.74 829.00,300.30 832.00,299.71 835.00,299.23 838.00,298.72 841.00,298.37 844.00,298.10 847.00,297.73 850.00,297.42 853.00,297.14 856.00,296.80 859.00,296.52 862.00,296.22 865.00,296.04 868.00,295.85 871.00,295.63 874.00,295.49 877.00,295.39 880.00,295.16 883.00,294.98 886.00,294.84 889.00,294.73 892.00,294.66 895.00,294.52 898.00,294.39 901.00,294.30 904.00,294.20 907.00,294.09 910.00,293.98 913.00,293.85 916.00,293.74 919.00,293.61 922.00,293.51 925.00,293.44 928.00,293.29 931.00,293.21 934.00,293.15 937.00,293.04 940.00,292.94 943.00,292.91 946.00,292.86 949.00,292.78 952.00,292.70 955.00,292.62 958.00,292.55 961.00,292.48 964.00,292.42 967.00,292.37 970.00,292.36 973.00,292.32 976.00,292.27 979.00,292.20 982.00,292.16 985.00,292.12 988.00,292.08 991.00,292.03 994.00,292.01 997.00,291.99 1000.00,291.98 1003.00,291.91 1006.00,291.87 1009.00,291.86 1012.00,291.80 1015.00,291.78 1018.00,291.72 1021.00,291.66 1024.00,291.60 1027.00,291.56 1030.00,291.52 1033.00,291.48 1036.00,291.47 1039.00,291.47 1042.00,291.45 1045.00,291.44 1048.00,291.41 1051.00,291.39 1054.00,291.35 1057.00,291.29 1060.00,291.25 1063.00,291.20 1066.00,291.17 1069.00,291.12 1072.00,291.08 1075.00,291.06 1078.00,291.04 1081.00,291.04 1084.00,291.00 1087.00,290.98 1090.00,290.94 1093.00,290.91 1096.00,290.90 1099.00,290.89 1102.00,290.89 1105.00,290.85 1108.00,290.82 1111.00,290.79 1114.00,290.78 1117.00,290.75 1120.00,290.71 1123.00,290.68 1126.00,290.66 1129.00,290.65 1132.00,290.63 1135.00,290.61 1138.00,290.59 1141.00,290.59 1144.00,290.57 1147.00,290.57 1150.00,290.57 1153.00,290.55 1156.00,290.55 1159.00,290.53 1162.00,290.52 1165.00,290.50 1168.00,290.49 1171.00,290.47 1174.00,290.46 1177.00,290.46 1180.00,290.45 1183.00,290.43 1186.00,290.41 1189.00,290.42 1192.00,290.41 1195.00,290.41 1198.00,290.38 1201.00,290.38 1204.00,290.35 1207.00,290.34 1210.00,290.35 1213.00,290.34 1216.00,290.33 1219.00,290.32 1222.00,290.31 1225.00,290.30 1228.00,290.29 1231.00,290.29 1234.00,290.28 1237.00,290.26 1240.00,290.26 1243.00,290.26 1246.00,290.25 1249.00,290.23 1252.00,290.22 1255.00,290.23 1258.00,290.22 1261.00,290.22 1264.00,290.19 1267.00,290.19 1270.00,290.19 1273.00,290.18 1276.00,290.18 1279.00,290.17 1282.00,290.15 1285.00,290.14 1288.00,290.12 1291.00,290.12 1294.00,290.11 1297.00,290.10 1300.00,290.11 1303.00,290.09 1306.00,290.07 1309.00,290.05 1312.00,290.07 1315.00,290.07 1318.00,290.06 1321.00,290.06 1324.00,290.06 1327.00,290.06 1330.00,290.04 1333.00,290.03 1336.00,290.02 1339.00,290.01 1342.00,290.00 1345.00,290.00 1348.00,289.98 1351.00,289.99 1354.00,289.97 1357.00,289.96 1360.00,289.95 1363.00,289.95 1366.00,289.94" fill="none" stroke="#1f77b4" stroke-width="2.3" stroke-linejoin="round" stroke-linecap="round"/>
<polygon points="766.00,413.00 769.00,387.57 772.00,375.17 775.00,367.35 778.00,360.44 781.00,353.79 784.00,347.41 787.00,341.43 790.00,335.85 793.00,330.92 796.00,326.79 799.00,322.79 802.00,318.93 805.00,315.73 808.00,312.40 811.00,309.57 814.00,307.17 817.00,304.55 820.00,302.52 823.00,300.89 826.00,299.46 829.00,298.05 832.00,296.66 835.00,295.39 838.00,294.36 841.00,293.22 844.00,292.34 847.00,291.54 850.00,290.78 853.00,289.97 856.00,289.25 859.00,288.59 862.00,287.92 865.00,286.98 868.00,286.26 871.00,285.73 874.00,285.06 877.00,284.61 880.00,284.06 883.00,283.59 886.00,283.26 889.00,282.90 892.00,282.49 895.00,282.22 898.00,281.87 901.00,281.59 904.00,281.18 907.00,280.82 910.00,280.36 913.00,280.15 916.00,279.82 919.00,279.49 922.00,279.34 925.00,279.07 928.00,278.87 931.00,278.67 934.00,278.51 937.00,278.25 940.00,278.12 943.00,278.04 946.00,277.84 949.00,277.71 952.00,277.61 955.00,277.45 958.00,277.28 961.00,277.03 964.00,276.90 967.00,276.67 970.00,276.50 973.00,276.40 976.00,276.32 979.00,276.22 982.00,276.03 985.00,275.94 988.00,275.82 991.00,275.71 994.00,275.65 997.00,275.59 1000.00,275.46 1003.00,275.39 1006.00,275.23 1009.00,275.16 1012.00,275.07 1015.00,274.98 1018.00,274.89 1021.00,274.80 1024.00,274.70 1027.00,274.53 1030.00,274.45 1033.00,274.33 1036.00,274.22 1039.00,274.12 1042.00,274.05 1045.00,273.98 1048.00,273.91 1051.00,273.81 1054.00,273.73 1057.00,273.64 1060.00,273.54 1063.00,273.44 1066.00,273.41 1069.00,273.32 1072.00,273.27 1075.00,273.19 1078.00,273.13 1081.00,273.08 1084.00,273.03 1087.00,272.98 1090.00,272.92 1093.00,272.88 1096.00,272.78 1099.00,272.73 1102.00,272.66 1105.00,272.58 1108.00,272.53 1111.00,272.49 1114.00,272.42 1117.00,272.41 1120.00,272.37 1123.00,272.31 1126.00,272.24 1129.00,272.16 1132.00,272.09 1135.00,272.06 1138.00,272.03 1141.00,271.98 1144.00,271.97 1147.00,271.93 1150.00,271.90 1153.00,271.87 1156.00,271.84 1159.00,271.83 1162.00,271.80 1165.00,271.74 1168.00,271.69 1171.00,271.64 1174.00,271.60 1177.00,271.57 1180.00,271.52 1183.00,271.50 1186.00,271.50 1189.00,271.45 1192.00,271.42 1195.00,271.39 1198.00,271.38 1201.00,271.37 1204.00,271.35 1207.00,271.35 1210.00,271.31 1213.00,271.31 1216.00,271.30 1219.00,271.25 1222.00,271.25 1225.00,271.19 1228.00,271.15 1231.00,271.13 1234.00,271.10 1237.00,271.07 1240.00,271.03 1243.00,270.98 1246.00,270.92 1249.00,270.90 1252.00,270.88 1255.00,270.88 1258.00,270.89 1261.00,270.84 1264.00,270.82 1267.00,270.82 1270.00,270.78 1273.00,270.77 1276.00,270.73 1279.00,270.72 1282.00,270.68 1285.00,270.66 1288.00,270.64 1291.00,270.61 1294.00,270.61 1297.00,270.57 1300.00,270.54 1303.00,270.54 1306.00,270.52 1309.00,270.48 1312.00,270.46 1315.00,270.44 1318.00,270.43 1321.00,270.42 1324.00,270.39 1327.00,270.37 1330.00,270.36 1333.00,270.34 1336.00,270.32 1339.00,270.30 1342.00,270.29 1345.00,270.29 1348.00,270.27 1351.00,270.25 1354.00,270.24 1357.00,270.21 1360.00,270.17 1363.00,270.16 1366.00,270.14 1366.00,271.68 1363.00,271.73 1360.00,271.74 1357.00,271.76 1354.00,271.77 1351.00,271.77 1348.00,271.78 1345.00,271.82 1342.00,271.84 1339.00,271.85 1336.00,271.85 1333.00,271.87 1330.00,271.90 1327.00,271.90 1324.00,271.94 1321.00,271.98 1318.00,271.99 1315.00,272.03 1312.00,272.05 1309.00,272.06 1306.00,272.08 1303.00,272.09 1300.00,272.12 1297.00,272.16 1294.00,272.20 1291.00,272.21 1288.00,272.22 1285.00,272.21 1282.00,272.23 1279.00,272.24 1276.00,272.28 1273.00,272.30 1270.00,272.33 1267.00,272.37 1264.00,272.43 1261.00,272.45 1258.00,272.48 1255.00,272.49 1252.00,272.56 1249.00,272.56 1246.00,272.62 1243.00,272.64 1240.00,272.68 1237.00,272.73 1234.00,272.78 1231.00,272.82 1228.00,272.85 1225.00,272.88 1222.00,272.87 1219.00,272.90 1216.00,272.91 1213.00,272.93 1210.00,272.94 1207.00,272.98 1204.00,273.02 1201.00,273.06 1198.00,273.10 1195.00,273.15 1192.00,273.17 1189.00,273.22 1186.00,273.28 1183.00,273.30 1180.00,273.33 1177.00,273.38 1174.00,273.43 1171.00,273.50 1168.00,273.56 1165.00,273.60 1162.00,273.65 1159.00,273.70 1156.00,273.73 1153.00,273.76 1150.00,273.83 1147.00,273.89 1144.00,273.94 1141.00,274.00 1138.00,274.08 1135.00,274.13 1132.00,274.22 1129.00,274.24 1126.00,274.23 1123.00,274.27 1120.00,274.29 1117.00,274.34 1114.00,274.37 1111.00,274.43 1108.00,274.50 1105.00,274.58 1102.00,274.64 1099.00,274.67 1096.00,274.69 1093.00,274.71 1090.00,274.74 1087.00,274.82 1084.00,274.88 1081.00,274.95 1078.00,275.02 1075.00,275.10 1072.00,275.16 1069.00,275.20 1066.00,275.26 1063.00,275.32 1060.00,275.42 1057.00,275.53 1054.00,275.63 1051.00,275.74 1048.00,275.85 1045.00,275.93 1042.00,276.01 1039.00,276.14 1036.00,276.20 1033.00,276.26 1030.00,276.38 1027.00,276.52 1024.00,276.61 1021.00,276.67 1018.00,276.76 1015.00,276.83 1012.00,276.96 1009.00,277.13 1006.00,277.24 1003.00,277.34 1000.00,277.45 997.00,277.60 994.00,277.81 991.00,277.93 988.00,278.18 985.00,278.30 982.00,278.46 979.00,278.62 976.00,278.80 973.00,278.94 970.00,279.06 967.00,279.23 964.00,279.45 961.00,279.59 958.00,279.77 955.00,279.94 952.00,280.04 949.00,280.24 946.00,280.42 943.00,280.66 940.00,280.79 937.00,280.96 934.00,281.13 931.00,281.28 928.00,281.49 925.00,281.78 922.00,282.02 919.00,282.32 916.00,282.49 913.00,282.87 910.00,283.19 907.00,283.52 904.00,283.96 901.00,284.34 898.00,284.72 895.00,285.16 892.00,285.59 889.00,285.94 886.00,286.20 883.00,286.67 880.00,287.11 877.00,287.48 874.00,288.06 871.00,288.67 868.00,289.23 865.00,289.82 862.00,290.46 859.00,291.06 856.00,291.68 853.00,292.41 850.00,293.12 847.00,293.96 844.00,295.02 841.00,296.05 838.00,297.30 835.00,298.61 832.00,300.10 829.00,301.63 826.00,303.05 823.00,304.75 820.00,306.54 817.00,308.75 814.00,311.01 811.00,313.52 808.00,316.13 805.00,319.32 802.00,322.83 799.00,326.63 796.00,331.04 793.00,335.48 790.00,340.20 787.00,345.23 784.00,350.56 781.00,356.12 778.00,362.97 775.00,370.76 772.00,379.15 769.00,392.38 766.00,413.00" fill="#d62728" opacity="0.13"/>
<polyline points="766.00,413.00 769.00,389.97 772.00,377.16 775.00,369.06 778.00,361.71 781.00,354.96 784.00,348.99 787.00,343.33 790.00,338.03 793.00,333.20 796.00,328.91 799.00,324.71 802.00,320.88 805.00,317.53 808.00,314.27 811.00,311.55 814.00,309.09 817.00,306.65 820.00,304.53 823.00,302.82 826.00,301.26 829.00,299.84 832.00,298.38 835.00,297.00 838.00,295.83 841.00,294.64 844.00,293.68 847.00,292.75 850.00,291.95 853.00,291.19 856.00,290.46 859.00,289.82 862.00,289.19 865.00,288.40 868.00,287.75 871.00,287.20 874.00,286.56 877.00,286.05 880.00,285.58 883.00,285.13 886.00,284.73 889.00,284.42 892.00,284.04 895.00,283.69 898.00,283.30 901.00,282.96 904.00,282.57 907.00,282.17 910.00,281.77 913.00,281.51 916.00,281.15 919.00,280.91 922.00,280.68 925.00,280.43 928.00,280.18 931.00,279.98 934.00,279.82 937.00,279.60 940.00,279.46 943.00,279.35 946.00,279.13 949.00,278.97 952.00,278.83 955.00,278.69 958.00,278.52 961.00,278.31 964.00,278.17 967.00,277.95 970.00,277.78 973.00,277.67 976.00,277.56 979.00,277.42 982.00,277.25 985.00,277.12 988.00,277.00 991.00,276.82 994.00,276.73 997.00,276.59 1000.00,276.45 1003.00,276.36 1006.00,276.24 1009.00,276.14 1012.00,276.02 1015.00,275.91 1018.00,275.83 1021.00,275.73 1024.00,275.66 1027.00,275.52 1030.00,275.42 1033.00,275.30 1036.00,275.21 1039.00,275.13 1042.00,275.03 1045.00,274.95 1048.00,274.88 1051.00,274.77 1054.00,274.68 1057.00,274.58 1060.00,274.48 1063.00,274.38 1066.00,274.33 1069.00,274.26 1072.00,274.22 1075.00,274.15 1078.00,274.08 1081.00,274.01 1084.00,273.95 1087.00,273.90 1090.00,273.83 1093.00,273.79 1096.00,273.73 1099.00,273.70 1102.00,273.65 1105.00,273.58 1108.00,273.51 1111.00,273.46 1114.00,273.40 1117.00,273.38 1120.00,273.33 1123.00,273.29 1126.00,273.24 1129.00,273.20 1132.00,273.15 1135.00,273.10 1138.00,273.05 1141.00,272.99 1144.00,272.96 1147.00,272.91 1150.00,272.86 1153.00,272.82 1156.00,272.78 1159.00,272.76 1162.00,272.72 1165.00,272.67 1168.00,272.62 1171.00,272.57 1174.00,272.52 1177.00,272.48 1180.00,272.43 1183.00,272.40 1186.00,272.39 1189.00,272.34 1192.00,272.30 1195.00,272.27 1198.00,272.24 1201.00,272.21 1204.00,272.18 1207.00,272.16 1210.00,272.13 1213.00,272.12 1216.00,272.10 1219.00,272.07 1222.00,272.06 1225.00,272.04 1228.00,272.00 1231.00,271.98 1234.00,271.94 1237.00,271.90 1240.00,271.86 1243.00,271.81 1246.00,271.77 1249.00,271.73 1252.00,271.72 1255.00,271.69 1258.00,271.69 1261.00,271.64 1264.00,271.62 1267.00,271.60 1270.00,271.55 1273.00,271.54 1276.00,271.51 1279.00,271.48 1282.00,271.45 1285.00,271.44 1288.00,271.43 1291.00,271.41 1294.00,271.40 1297.00,271.37 1300.00,271.33 1303.00,271.32 1306.00,271.30 1309.00,271.27 1312.00,271.25 1315.00,271.24 1318.00,271.21 1321.00,271.20 1324.00,271.16 1327.00,271.13 1330.00,271.13 1333.00,271.11 1336.00,271.09 1339.00,271.07 1342.00,271.06 1345.00,271.05 1348.00,271.02 1351.00,271.01 1354.00,271.01 1357.00,270.99 1360.00,270.96 1363.00,270.94 1366.00,270.91" fill="none" stroke="#d62728" stroke-width="2.3" stroke-linejoin="round" stroke-linecap="round"/>
<polygon points="766.00,413.00 769.00,382.78 772.00,365.44 775.00,352.57 778.00,343.95 781.00,337.99 784.00,333.35 787.00,329.24 790.00,326.48 793.00,324.25 796.00,322.24 799.00,320.68 802.00,319.27 805.00,317.98 808.00,316.58 811.00,315.67 814.00,315.00 817.00,314.31 820.00,313.78 823.00,313.30 826.00,312.68 829.00,312.26 832.00,311.82 835.00,311.71 838.00,311.29 841.00,310.93 844.00,310.76 847.00,310.53 850.00,310.24 853.00,310.01 856.00,309.75 859.00,309.50 862.00,309.33 865.00,309.13 868.00,308.98 871.00,308.74 874.00,308.59 877.00,308.42 880.00,308.23 883.00,308.02 886.00,307.97 889.00,307.86 892.00,307.83 895.00,307.62 898.00,307.56 901.00,307.44 904.00,307.40 907.00,307.34 910.00,307.23 913.00,307.14 916.00,307.04 919.00,306.98 922.00,306.86 925.00,306.79 928.00,306.72 931.00,306.67 934.00,306.64 937.00,306.61 940.00,306.51 943.00,306.50 946.00,306.43 949.00,306.35 952.00,306.32 955.00,306.29 958.00,306.22 961.00,306.16 964.00,306.12 967.00,306.03 970.00,306.00 973.00,305.95 976.00,305.94 979.00,305.85 982.00,305.84 985.00,305.76 988.00,305.72 991.00,305.68 994.00,305.60 997.00,305.62 1000.00,305.63 1003.00,305.53 1006.00,305.48 1009.00,305.42 1012.00,305.40 1015.00,305.37 1018.00,305.40 1021.00,305.35 1024.00,305.35 1027.00,305.31 1030.00,305.25 1033.00,305.22 1036.00,305.18 1039.00,305.12 1042.00,305.11 1045.00,305.11 1048.00,305.13 1051.00,305.12 1054.00,305.15 1057.00,305.10 1060.00,305.07 1063.00,305.07 1066.00,305.02 1069.00,305.00 1072.00,305.03 1075.00,305.01 1078.00,304.99 1081.00,304.98 1084.00,304.95 1087.00,304.95 1090.00,304.92 1093.00,304.89 1096.00,304.90 1099.00,304.87 1102.00,304.86 1105.00,304.84 1108.00,304.84 1111.00,304.81 1114.00,304.82 1117.00,304.79 1120.00,304.78 1123.00,304.74 1126.00,304.71 1129.00,304.70 1132.00,304.72 1135.00,304.70 1138.00,304.70 1141.00,304.68 1144.00,304.65 1147.00,304.66 1150.00,304.63 1153.00,304.61 1156.00,304.61 1159.00,304.60 1162.00,304.59 1165.00,304.58 1168.00,304.57 1171.00,304.58 1174.00,304.56 1177.00,304.59 1180.00,304.58 1183.00,304.57 1186.00,304.57 1189.00,304.57 1192.00,304.56 1195.00,304.55 1198.00,304.51 1201.00,304.52 1204.00,304.52 1207.00,304.51 1210.00,304.48 1213.00,304.49 1216.00,304.48 1219.00,304.47 1222.00,304.46 1225.00,304.45 1228.00,304.43 1231.00,304.40 1234.00,304.40 1237.00,304.40 1240.00,304.39 1243.00,304.39 1246.00,304.38 1249.00,304.36 1252.00,304.34 1255.00,304.35 1258.00,304.33 1261.00,304.33 1264.00,304.34 1267.00,304.34 1270.00,304.34 1273.00,304.34 1276.00,304.35 1279.00,304.34 1282.00,304.31 1285.00,304.31 1288.00,304.31 1291.00,304.31 1294.00,304.30 1297.00,304.29 1300.00,304.28 1303.00,304.28 1306.00,304.25 1309.00,304.26 1312.00,304.28 1315.00,304.29 1318.00,304.29 1321.00,304.30 1324.00,304.31 1327.00,304.31 1330.00,304.31 1333.00,304.32 1336.00,304.30 1339.00,304.29 1342.00,304.29 1345.00,304.28 1348.00,304.28 1351.00,304.26 1354.00,304.25 1357.00,304.27 1360.00,304.25 1363.00,304.26 1366.00,304.31 1366.00,305.66 1363.00,305.66 1360.00,305.66 1357.00,305.65 1354.00,305.67 1351.00,305.69 1348.00,305.69 1345.00,305.71 1342.00,305.71 1339.00,305.73 1336.00,305.73 1333.00,305.73 1330.00,305.71 1327.00,305.70 1324.00,305.70 1321.00,305.69 1318.00,305.72 1315.00,305.73 1312.00,305.75 1309.00,305.75 1306.00,305.75 1303.00,305.74 1300.00,305.75 1297.00,305.79 1294.00,305.82 1291.00,305.83 1288.00,305.84 1285.00,305.86 1282.00,305.89 1279.00,305.89 1276.00,305.90 1273.00,305.91 1270.00,305.90 1267.00,305.93 1264.00,305.94 1261.00,305.94 1258.00,305.95 1255.00,305.95 1252.00,305.97 1249.00,305.97 1246.00,305.97 1243.00,306.00 1240.00,306.03 1237.00,306.05 1234.00,306.06 1231.00,306.08 1228.00,306.09 1225.00,306.13 1222.00,306.13 1219.00,306.16 1216.00,306.17 1213.00,306.21 1210.00,306.22 1207.00,306.24 1204.00,306.22 1201.00,306.22 1198.00,306.21 1195.00,306.19 1192.00,306.22 1189.00,306.23 1186.00,306.27 1183.00,306.30 1180.00,306.30 1177.00,306.34 1174.00,306.35 1171.00,306.36 1168.00,306.39 1165.00,306.41 1162.00,306.46 1159.00,306.48 1156.00,306.53 1153.00,306.54 1150.00,306.56 1147.00,306.61 1144.00,306.61 1141.00,306.62 1138.00,306.61 1135.00,306.60 1132.00,306.61 1129.00,306.63 1126.00,306.66 1123.00,306.65 1120.00,306.65 1117.00,306.67 1114.00,306.71 1111.00,306.71 1108.00,306.72 1105.00,306.73 1102.00,306.76 1099.00,306.77 1096.00,306.79 1093.00,306.82 1090.00,306.86 1087.00,306.88 1084.00,306.89 1081.00,306.89 1078.00,306.92 1075.00,306.94 1072.00,306.97 1069.00,307.03 1066.00,307.03 1063.00,307.07 1060.00,307.07 1057.00,307.11 1054.00,307.10 1051.00,307.13 1048.00,307.16 1045.00,307.18 1042.00,307.22 1039.00,307.26 1036.00,307.30 1033.00,307.32 1030.00,307.30 1027.00,307.29 1024.00,307.29 1021.00,307.29 1018.00,307.33 1015.00,307.35 1012.00,307.36 1009.00,307.44 1006.00,307.49 1003.00,307.55 1000.00,307.53 997.00,307.58 994.00,307.59 991.00,307.57 988.00,307.61 985.00,307.65 982.00,307.66 979.00,307.75 976.00,307.75 973.00,307.85 970.00,307.91 967.00,307.94 964.00,307.98 961.00,308.02 958.00,308.04 955.00,308.07 952.00,308.08 949.00,308.12 946.00,308.10 943.00,308.16 940.00,308.18 937.00,308.27 934.00,308.40 931.00,308.49 928.00,308.47 925.00,308.49 922.00,308.55 919.00,308.64 916.00,308.74 913.00,308.79 910.00,308.85 907.00,308.94 904.00,309.08 901.00,309.18 898.00,309.21 895.00,309.27 892.00,309.40 889.00,309.50 886.00,309.59 883.00,309.81 880.00,309.90 877.00,310.09 874.00,310.21 871.00,310.33 868.00,310.68 865.00,310.88 862.00,311.00 859.00,311.35 856.00,311.54 853.00,311.77 850.00,311.96 847.00,312.23 844.00,312.53 841.00,312.88 838.00,313.30 835.00,313.80 832.00,314.28 829.00,314.85 826.00,315.33 823.00,315.87 820.00,316.43 817.00,317.01 814.00,317.52 811.00,318.37 808.00,319.13 805.00,320.20 802.00,321.78 799.00,323.19 796.00,325.24 793.00,327.45 790.00,330.11 787.00,333.02 784.00,337.02 781.00,341.95 778.00,348.14 775.00,356.92 772.00,369.70 769.00,386.22 766.00,413.00" fill="#2ca02c" opacity="0.13"/>
<polyline points="766.00,413.00 769.00,384.50 772.00,367.57 775.00,354.75 778.00,346.04 781.00,339.97 784.00,335.18 787.00,331.13 790.00,328.30 793.00,325.85 796.00,323.74 799.00,321.93 802.00,320.52 805.00,319.09 808.00,317.85 811.00,317.02 814.00,316.26 817.00,315.66 820.00,315.11 823.00,314.58 826.00,314.00 829.00,313.56 832.00,313.05 835.00,312.76 838.00,312.29 841.00,311.91 844.00,311.65 847.00,311.38 850.00,311.10 853.00,310.89 856.00,310.65 859.00,310.43 862.00,310.16 865.00,310.01 868.00,309.83 871.00,309.54 874.00,309.40 877.00,309.25 880.00,309.06 883.00,308.92 886.00,308.78 889.00,308.68 892.00,308.62 895.00,308.44 898.00,308.38 901.00,308.31 904.00,308.24 907.00,308.14 910.00,308.04 913.00,307.96 916.00,307.89 919.00,307.81 922.00,307.70 925.00,307.64 928.00,307.60 931.00,307.58 934.00,307.52 937.00,307.44 940.00,307.35 943.00,307.33 946.00,307.26 949.00,307.23 952.00,307.20 955.00,307.18 958.00,307.13 961.00,307.09 964.00,307.05 967.00,306.98 970.00,306.96 973.00,306.90 976.00,306.84 979.00,306.80 982.00,306.75 985.00,306.70 988.00,306.66 991.00,306.62 994.00,306.59 997.00,306.60 1000.00,306.58 1003.00,306.54 1006.00,306.49 1009.00,306.43 1012.00,306.38 1015.00,306.36 1018.00,306.36 1021.00,306.32 1024.00,306.32 1027.00,306.30 1030.00,306.28 1033.00,306.27 1036.00,306.24 1039.00,306.19 1042.00,306.17 1045.00,306.15 1048.00,306.15 1051.00,306.12 1054.00,306.12 1057.00,306.11 1060.00,306.07 1063.00,306.07 1066.00,306.02 1069.00,306.01 1072.00,306.00 1075.00,305.98 1078.00,305.96 1081.00,305.94 1084.00,305.92 1087.00,305.92 1090.00,305.89 1093.00,305.85 1096.00,305.84 1099.00,305.82 1102.00,305.81 1105.00,305.79 1108.00,305.78 1111.00,305.76 1114.00,305.76 1117.00,305.73 1120.00,305.71 1123.00,305.69 1126.00,305.68 1129.00,305.66 1132.00,305.67 1135.00,305.65 1138.00,305.65 1141.00,305.65 1144.00,305.63 1147.00,305.64 1150.00,305.59 1153.00,305.58 1156.00,305.57 1159.00,305.54 1162.00,305.53 1165.00,305.50 1168.00,305.48 1171.00,305.47 1174.00,305.45 1177.00,305.46 1180.00,305.44 1183.00,305.44 1186.00,305.42 1189.00,305.40 1192.00,305.39 1195.00,305.37 1198.00,305.36 1201.00,305.37 1204.00,305.37 1207.00,305.37 1210.00,305.35 1213.00,305.35 1216.00,305.33 1219.00,305.32 1222.00,305.30 1225.00,305.29 1228.00,305.26 1231.00,305.24 1234.00,305.23 1237.00,305.23 1240.00,305.21 1243.00,305.19 1246.00,305.18 1249.00,305.16 1252.00,305.16 1255.00,305.15 1258.00,305.14 1261.00,305.14 1264.00,305.14 1267.00,305.13 1270.00,305.12 1273.00,305.12 1276.00,305.12 1279.00,305.11 1282.00,305.10 1285.00,305.08 1288.00,305.08 1291.00,305.07 1294.00,305.06 1297.00,305.04 1300.00,305.02 1303.00,305.01 1306.00,305.00 1309.00,305.01 1312.00,305.01 1315.00,305.01 1318.00,305.00 1321.00,305.00 1324.00,305.00 1327.00,305.00 1330.00,305.01 1333.00,305.02 1336.00,305.02 1339.00,305.01 1342.00,305.00 1345.00,304.99 1348.00,304.98 1351.00,304.98 1354.00,304.96 1357.00,304.96 1360.00,304.96 1363.00,304.96 1366.00,304.98" fill="none" stroke="#2ca02c" stroke-width="2.3" stroke-linejoin="round" stroke-linecap="round"/>
<polygon points="766.00,413.00 769.00,389.84 772.00,379.78 775.00,374.55 778.00,371.16 781.00,370.10 784.00,368.38 787.00,366.81 790.00,365.95 793.00,365.06 796.00,364.28 799.00,363.57 802.00,363.08 805.00,362.55 808.00,362.10 811.00,361.80 814.00,361.47 817.00,361.23 820.00,361.07 823.00,360.97 826.00,360.78 829.00,360.59 832.00,360.31 835.00,359.98 838.00,359.82 841.00,359.70 844.00,359.58 847.00,359.41 850.00,359.26 853.00,359.14 856.00,359.02 859.00,358.91 862.00,358.79 865.00,358.75 868.00,358.76 871.00,358.77 874.00,358.77 877.00,358.59 880.00,358.61 883.00,358.57 886.00,358.59 889.00,358.61 892.00,358.61 895.00,358.58 898.00,358.60 901.00,358.57 904.00,358.56 907.00,358.55 910.00,358.52 913.00,358.51 916.00,358.52 919.00,358.50 922.00,358.51 925.00,358.51 928.00,358.53 931.00,358.51 934.00,358.52 937.00,358.49 940.00,358.49 943.00,358.42 946.00,358.36 949.00,358.34 952.00,358.32 955.00,358.32 958.00,358.26 961.00,358.23 964.00,358.19 967.00,358.13 970.00,358.12 973.00,358.10 976.00,358.10 979.00,358.12 982.00,358.13 985.00,358.12 988.00,358.12 991.00,358.09 994.00,358.08 997.00,358.08 1000.00,358.05 1003.00,357.99 1006.00,357.98 1009.00,357.98 1012.00,357.97 1015.00,357.96 1018.00,357.92 1021.00,357.91 1024.00,357.89 1027.00,357.84 1030.00,357.85 1033.00,357.85 1036.00,357.84 1039.00,357.80 1042.00,357.80 1045.00,357.77 1048.00,357.79 1051.00,357.77 1054.00,357.79 1057.00,357.80 1060.00,357.76 1063.00,357.74 1066.00,357.71 1069.00,357.73 1072.00,357.72 1075.00,357.73 1078.00,357.72 1081.00,357.72 1084.00,357.75 1087.00,357.76 1090.00,357.77 1093.00,357.77 1096.00,357.79 1099.00,357.80 1102.00,357.81 1105.00,357.81 1108.00,357.81 1111.00,357.80 1114.00,357.79 1117.00,357.78 1120.00,357.76 1123.00,357.72 1126.00,357.73 1129.00,357.72 1132.00,357.71 1135.00,357.72 1138.00,357.69 1141.00,357.70 1144.00,357.70 1147.00,357.71 1150.00,357.70 1153.00,357.69 1156.00,357.70 1159.00,357.71 1162.00,357.73 1165.00,357.72 1168.00,357.72 1171.00,357.73 1174.00,357.72 1177.00,357.72 1180.00,357.72 1183.00,357.73 1186.00,357.71 1189.00,357.74 1192.00,357.73 1195.00,357.72 1198.00,357.74 1201.00,357.73 1204.00,357.73 1207.00,357.72 1210.00,357.72 1213.00,357.70 1216.00,357.67 1219.00,357.67 1222.00,357.67 1225.00,357.65 1228.00,357.65 1231.00,357.63 1234.00,357.63 1237.00,357.64 1240.00,357.63 1243.00,357.61 1246.00,357.59 1249.00,357.59 1252.00,357.60 1255.00,357.59 1258.00,357.59 1261.00,357.59 1264.00,357.60 1267.00,357.58 1270.00,357.59 1273.00,357.58 1276.00,357.58 1279.00,357.57 1282.00,357.58 1285.00,357.58 1288.00,357.57 1291.00,357.58 1294.00,357.56 1297.00,357.56 1300.00,357.56 1303.00,357.56 1306.00,357.55 1309.00,357.56 1312.00,357.56 1315.00,357.54 1318.00,357.55 1321.00,357.56 1324.00,357.56 1327.00,357.55 1330.00,357.54 1333.00,357.54 1336.00,357.54 1339.00,357.54 1342.00,357.53 1345.00,357.51 1348.00,357.51 1351.00,357.49 1354.00,357.48 1357.00,357.48 1360.00,357.48 1363.00,357.47 1366.00,357.46 1366.00,358.34 1363.00,358.33 1360.00,358.33 1357.00,358.33 1354.00,358.33 1351.00,358.32 1348.00,358.32 1345.00,358.31 1342.00,358.31 1339.00,358.32 1336.00,358.32 1333.00,358.32 1330.00,358.32 1327.00,358.32 1324.00,358.33 1321.00,358.32 1318.00,358.31 1315.00,358.33 1312.00,358.34 1309.00,358.35 1306.00,358.35 1303.00,358.37 1300.00,358.37 1297.00,358.37 1294.00,358.37 1291.00,358.39 1288.00,358.38 1285.00,358.38 1282.00,358.39 1279.00,358.40 1276.00,358.40 1273.00,358.40 1270.00,358.42 1267.00,358.42 1264.00,358.43 1261.00,358.42 1258.00,358.41 1255.00,358.42 1252.00,358.44 1249.00,358.45 1246.00,358.48 1243.00,358.47 1240.00,358.48 1237.00,358.48 1234.00,358.47 1231.00,358.47 1228.00,358.47 1225.00,358.47 1222.00,358.46 1219.00,358.47 1216.00,358.46 1213.00,358.47 1210.00,358.47 1207.00,358.49 1204.00,358.51 1201.00,358.52 1198.00,358.52 1195.00,358.51 1192.00,358.50 1189.00,358.49 1186.00,358.51 1183.00,358.49 1180.00,358.48 1177.00,358.48 1174.00,358.47 1171.00,358.49 1168.00,358.49 1165.00,358.50 1162.00,358.49 1159.00,358.50 1156.00,358.50 1153.00,358.52 1150.00,358.52 1147.00,358.55 1144.00,358.58 1141.00,358.58 1138.00,358.60 1135.00,358.61 1132.00,358.61 1129.00,358.66 1126.00,358.67 1123.00,358.68 1120.00,358.68 1117.00,358.68 1114.00,358.69 1111.00,358.70 1108.00,358.71 1105.00,358.73 1102.00,358.78 1099.00,358.77 1096.00,358.78 1093.00,358.80 1090.00,358.83 1087.00,358.83 1084.00,358.83 1081.00,358.82 1078.00,358.86 1075.00,358.84 1072.00,358.85 1069.00,358.85 1066.00,358.85 1063.00,358.86 1060.00,358.89 1057.00,358.90 1054.00,358.94 1051.00,358.94 1048.00,358.98 1045.00,359.00 1042.00,359.00 1039.00,359.01 1036.00,359.00 1033.00,359.03 1030.00,359.08 1027.00,359.12 1024.00,359.15 1021.00,359.20 1018.00,359.25 1015.00,359.28 1012.00,359.29 1009.00,359.33 1006.00,359.31 1003.00,359.34 1000.00,359.38 997.00,359.39 994.00,359.43 991.00,359.42 988.00,359.45 985.00,359.47 982.00,359.50 979.00,359.54 976.00,359.55 973.00,359.56 970.00,359.58 967.00,359.62 964.00,359.66 961.00,359.68 958.00,359.68 955.00,359.66 952.00,359.75 949.00,359.80 946.00,359.84 943.00,359.86 940.00,359.79 937.00,359.83 934.00,359.88 931.00,359.92 928.00,359.91 925.00,359.97 922.00,359.97 919.00,360.01 916.00,360.03 913.00,360.01 910.00,360.03 907.00,360.06 904.00,360.12 901.00,360.14 898.00,360.18 895.00,360.21 892.00,360.24 889.00,360.28 886.00,360.35 883.00,360.41 880.00,360.52 877.00,360.68 874.00,360.77 871.00,360.92 868.00,361.02 865.00,361.17 862.00,361.36 859.00,361.52 856.00,361.71 853.00,361.79 850.00,361.92 847.00,362.05 844.00,362.20 841.00,362.33 838.00,362.45 835.00,362.63 832.00,362.81 829.00,363.03 826.00,363.33 823.00,363.75 820.00,364.24 817.00,364.60 814.00,364.99 811.00,365.09 808.00,365.40 805.00,365.68 802.00,366.39 799.00,366.97 796.00,367.45 793.00,368.07 790.00,368.84 787.00,369.97 784.00,371.34 781.00,372.42 778.00,374.34 775.00,377.22 772.00,382.31 769.00,392.88 766.00,413.00" fill="#9467bd" opacity="0.13"/>
<polyline points="766.00,413.00 769.00,391.36 772.00,381.05 775.00,375.89 778.00,372.75 781.00,371.26 784.00,369.86 787.00,368.39 790.00,367.39 793.00,366.56 796.00,365.86 799.00,365.27 802.00,364.73 805.00,364.11 808.00,363.75 811.00,363.44 814.00,363.23 817.00,362.92 820.00,362.65 823.00,362.36 826.00,362.06 829.00,361.81 832.00,361.56 835.00,361.30 838.00,361.13 841.00,361.02 844.00,360.89 847.00,360.73 850.00,360.59 853.00,360.47 856.00,360.37 859.00,360.21 862.00,360.08 865.00,359.96 868.00,359.89 871.00,359.85 874.00,359.77 877.00,359.64 880.00,359.57 883.00,359.49 886.00,359.47 889.00,359.44 892.00,359.42 895.00,359.40 898.00,359.39 901.00,359.36 904.00,359.34 907.00,359.30 910.00,359.27 913.00,359.26 916.00,359.28 919.00,359.26 922.00,359.24 925.00,359.24 928.00,359.22 931.00,359.22 934.00,359.20 937.00,359.16 940.00,359.14 943.00,359.14 946.00,359.10 949.00,359.07 952.00,359.04 955.00,358.99 958.00,358.97 961.00,358.95 964.00,358.92 967.00,358.88 970.00,358.85 973.00,358.83 976.00,358.82 979.00,358.83 982.00,358.81 985.00,358.80 988.00,358.78 991.00,358.76 994.00,358.76 997.00,358.74 1000.00,358.71 1003.00,358.67 1006.00,358.65 1009.00,358.65 1012.00,358.63 1015.00,358.62 1018.00,358.59 1021.00,358.56 1024.00,358.52 1027.00,358.48 1030.00,358.47 1033.00,358.44 1036.00,358.42 1039.00,358.40 1042.00,358.40 1045.00,358.38 1048.00,358.39 1051.00,358.36 1054.00,358.37 1057.00,358.35 1060.00,358.32 1063.00,358.30 1066.00,358.28 1069.00,358.29 1072.00,358.28 1075.00,358.29 1078.00,358.29 1081.00,358.27 1084.00,358.29 1087.00,358.29 1090.00,358.30 1093.00,358.29 1096.00,358.29 1099.00,358.29 1102.00,358.29 1105.00,358.27 1108.00,358.26 1111.00,358.25 1114.00,358.24 1117.00,358.23 1120.00,358.22 1123.00,358.20 1126.00,358.20 1129.00,358.19 1132.00,358.16 1135.00,358.16 1138.00,358.15 1141.00,358.14 1144.00,358.14 1147.00,358.13 1150.00,358.11 1153.00,358.11 1156.00,358.10 1159.00,358.10 1162.00,358.11 1165.00,358.11 1168.00,358.11 1171.00,358.11 1174.00,358.10 1177.00,358.10 1180.00,358.10 1183.00,358.11 1186.00,358.11 1189.00,358.11 1192.00,358.12 1195.00,358.12 1198.00,358.13 1201.00,358.12 1204.00,358.12 1207.00,358.10 1210.00,358.09 1213.00,358.08 1216.00,358.07 1219.00,358.07 1222.00,358.07 1225.00,358.06 1228.00,358.06 1231.00,358.05 1234.00,358.05 1237.00,358.06 1240.00,358.05 1243.00,358.04 1246.00,358.03 1249.00,358.02 1252.00,358.02 1255.00,358.01 1258.00,358.00 1261.00,358.01 1264.00,358.01 1267.00,358.00 1270.00,358.01 1273.00,357.99 1276.00,357.99 1279.00,357.99 1282.00,357.98 1285.00,357.98 1288.00,357.98 1291.00,357.98 1294.00,357.97 1297.00,357.96 1300.00,357.97 1303.00,357.97 1306.00,357.95 1309.00,357.96 1312.00,357.95 1315.00,357.93 1318.00,357.93 1321.00,357.94 1324.00,357.94 1327.00,357.93 1330.00,357.93 1333.00,357.93 1336.00,357.93 1339.00,357.93 1342.00,357.92 1345.00,357.91 1348.00,357.91 1351.00,357.90 1354.00,357.90 1357.00,357.91 1360.00,357.91 1363.00,357.90 1366.00,357.90" fill="none" stroke="#9467bd" stroke-width="2.3" stroke-linejoin="round" stroke-linecap="round"/>
</svg>